<?xml version="1.0" encoding="UTF-8"?>
<svg version="1.1" xmlns="http://www.w3.org/2000/svg" width="677" height="369">
<path d="M0 0 C1.31690575 0.00212242 1.31690575 0.00212242 2.66041565 0.00428772 C5.44161507 0.00984804 8.22273151 0.02239304 11.00390625 0.03515625 C12.89908737 0.04017638 14.79426977 0.04473839 16.68945312 0.04882812 C21.31513573 0.05980445 25.94075696 0.07704143 30.56640625 0.09765625 C31.84033226 5.09076222 30.80637074 7.45180398 28.56640625 12.09765625 C28.00953125 13.52078125 28.00953125 13.52078125 27.44140625 14.97265625 C26.56640625 17.09765625 26.56640625 17.09765625 25.56640625 18.09765625 C23.17384097 18.14919547 20.80903462 18.13933484 18.41796875 18.08984375 C16.92188218 18.07229392 15.42578792 18.05538897 13.9296875 18.0390625 C11.57546501 18.00838701 9.22163204 17.97325962 6.86767578 17.92626953 C-8.66851072 17.34641862 -8.66851072 17.34641862 -22.49609375 23.47265625 C-24.35058036 25.9851865 -25.45092833 28.14966 -26.43359375 31.09765625 C-26.92859375 31.59265625 -26.92859375 31.59265625 -27.43359375 32.09765625 C-27.85365534 36.91220837 -27.99353566 41.5166438 -26.37109375 46.09765625 C-20.24587182 52.42046598 -11.69339549 51.76543121 -3.43359375 52.09765625 C-2.77359375 49.78765625 -2.11359375 47.47765625 -1.43359375 45.09765625 C-6.05359375 45.09765625 -10.67359375 45.09765625 -15.43359375 45.09765625 C-12.32708487 31.63611779 -12.32708487 31.63611779 -9.43359375 28.09765625 C-6.71692228 27.64005564 -4.6288163 27.51047729 -1.921875 27.609375 C-1.19365036 27.61644974 -0.46542572 27.62352448 0.28486633 27.6308136 C2.60892862 27.65878544 4.93057355 27.72151975 7.25390625 27.78515625 C8.8300433 27.81023594 10.40621816 27.8330497 11.98242188 27.85351562 C15.84468023 27.90861999 19.70513357 27.99490397 23.56640625 28.09765625 C24.90471619 30.77427613 24.13677246 32.31607419 23.29296875 35.078125 C22.55967747 37.11635936 21.68729065 39.0186198 20.75390625 40.97265625 C18.35574996 46.16417062 16.85986833 51.5782617 15.31713867 57.06982422 C15.11838135 57.77510254 14.91962402 58.48038086 14.71484375 59.20703125 C14.45453369 60.1501416 14.45453369 60.1501416 14.18896484 61.11230469 C13.44122856 63.49685035 12.51663771 65.78730917 11.56640625 68.09765625 C6.08545256 68.1223898 0.60453142 68.14053221 -4.87646484 68.15258789 C-6.74072841 68.15761417 -8.60498805 68.16443617 -10.46923828 68.1730957 C-13.15007499 68.18523588 -15.83085955 68.19090164 -18.51171875 68.1953125 C-19.344151 68.20047379 -20.17658325 68.20563507 -21.03424072 68.21095276 C-21.81474792 68.21102829 -22.59525513 68.21110382 -23.39941406 68.21118164 C-24.08336243 68.21340225 -24.76731079 68.21562286 -25.47198486 68.21791077 C-27.56180971 68.0897961 -29.42207119 67.66491376 -31.43359375 67.09765625 C-31.76359375 67.75765625 -32.09359375 68.41765625 -32.43359375 69.09765625 C-31.34046875 69.13890625 -30.24734375 69.18015625 -29.12109375 69.22265625 C-27.90421875 69.51140625 -26.68734375 69.80015625 -25.43359375 70.09765625 C-23.703125 73.15234375 -23.703125 73.15234375 -22.43359375 76.09765625 C-11.61940815 75.85896562 -0.80533169 75.61585553 10.00862885 75.36716557 C15.03044666 75.25181581 20.05228899 75.13796559 25.07421875 75.02758789 C29.92426529 74.92093208 34.77420589 74.81027777 39.62409973 74.69689751 C41.47073676 74.65442107 43.31740703 74.61336446 45.16410828 74.57377815 C47.75859738 74.51791499 50.35292037 74.45691931 52.94726562 74.39477539 C53.70396545 74.37966919 54.46066528 74.36456299 55.24029541 74.34899902 C60.07651979 74.22635296 64.77393217 73.76423776 69.56640625 73.09765625 C69.56640625 72.76765625 69.56640625 72.43765625 69.56640625 72.09765625 C73.19640625 72.09765625 76.82640625 72.09765625 80.56640625 72.09765625 C80.89808666 76.85174215 80.16083912 79.15411828 77.56640625 83.09765625 C76.87061171 85.28896159 76.87061171 85.28896159 76.56640625 87.09765625 C71.5415734 88.07866942 66.65066321 88.33588761 61.55102539 88.48657227 C60.66406479 88.515979 59.77710419 88.54538574 58.86326599 88.57568359 C55.94280907 88.67151725 53.02220615 88.76161498 50.1015625 88.8515625 C48.06423432 88.91707543 46.02691651 88.98291177 43.98960876 89.04905701 C39.7236961 89.18675055 35.45771204 89.32183765 31.19165039 89.45483398 C25.73311167 89.62502888 20.27472753 89.79967072 14.81638432 89.97601414 C9.59899222 90.14438998 4.38153084 90.31056904 -0.8359375 90.4765625 C-1.82689863 90.50826601 -2.81785976 90.53996952 -3.83885002 90.57263374 C-6.65546982 90.66233882 -9.47213389 90.75048692 -12.28881836 90.83813477 C-13.1144931 90.86461594 -13.94016785 90.89109711 -14.79086304 90.91838074 C-19.34113913 91.0580927 -23.88116355 91.12287123 -28.43359375 91.09765625 C-28.43359375 93.73765625 -28.43359375 96.37765625 -28.43359375 99.09765625 C-21.83982956 99.24328554 -15.24599292 99.38524348 -8.65209961 99.52490234 C-6.4190094 99.57260221 -4.18593559 99.62107734 -1.95288086 99.67041016 C3.452356 99.78958073 8.8572654 99.89729526 14.26318359 99.98046875 C18.39753814 100.04531763 22.52351688 100.16924328 26.65478516 100.33984375 C28.53807051 100.39506012 30.42137068 100.44977399 32.3046875 100.50390625 C33.15637009 100.55228638 34.00805267 100.6006665 34.88554382 100.6505127 C39.42297942 100.76787977 39.42297942 100.76787977 43.36605835 98.76831055 C44.9641862 97.17813206 44.9641862 97.17813206 46.2865448 95.49353027 C48.53368823 93.04269535 51.04634308 93.04071459 54.25390625 92.66015625 C59.56170495 92.72870716 62.9335354 95.43137969 66.56640625 99.09765625 C68.97348942 102.78350236 70.40196461 105.71097485 69.56640625 110.09765625 C67.33321776 114.59948067 64.97227193 118.49811697 60.56640625 121.09765625 C57.796875 121.6015625 57.796875 121.6015625 54.75390625 121.66015625 C53.25923828 121.72396484 53.25923828 121.72396484 51.734375 121.7890625 C48.21249912 121.02041635 48.07601552 120.64997655 45.88012695 118.09814453 C40.21378106 113.11870134 32.47950837 114.31098819 25.37890625 114.3984375 C23.79141273 114.39479941 22.20392357 114.38809099 20.61645508 114.37846375 C16.44977886 114.35944503 12.28393888 114.37337929 8.11730957 114.39697266 C1.44983662 114.43143153 -5.21742907 114.42548128 -11.88491821 114.40083885 C-14.20441581 114.39847989 -16.52312997 114.41622022 -18.8425293 114.43611145 C-20.27522791 114.43635976 -21.70792683 114.43596116 -23.140625 114.43481445 C-24.38303955 114.44180862 -25.6254541 114.4488028 -26.90551758 114.45600891 C-33.57052898 113.77903244 -37.9888963 111.17731048 -42.43359375 106.09765625 C-45.83403293 100.99699747 -45.09572008 95.04341689 -44.43359375 89.09765625 C-43.14037993 85.87750233 -41.98027314 84.58645656 -39.43359375 82.09765625 C-37.26171875 81.4296875 -37.26171875 81.4296875 -35.43359375 81.09765625 C-35.86671875 80.29328125 -36.29984375 79.48890625 -36.74609375 78.66015625 C-38.6861087 74.56456913 -40.08077757 70.41515471 -41.43359375 66.09765625 C-39.45359375 66.42765625 -37.47359375 66.75765625 -35.43359375 67.09765625 C-35.43359375 65.77765625 -35.43359375 64.45765625 -35.43359375 63.09765625 C-36.69635132 62.97704834 -36.69635132 62.97704834 -37.98461914 62.85400391 C-41.13668302 62.54979839 -44.28810102 62.23972231 -47.43920898 61.92578125 C-48.79770577 61.79162465 -50.1564295 61.65974432 -51.51538086 61.53027344 C-53.47959942 61.34272411 -55.44293903 61.1460419 -57.40625 60.94921875 C-58.58453369 60.83400879 -59.76281738 60.71879883 -60.97680664 60.60009766 C-64.63264787 60.06872388 -67.91008312 59.18756406 -71.43359375 58.09765625 C-71.43359375 57.43765625 -71.43359375 56.77765625 -71.43359375 56.09765625 C-70.8288623 56.01201416 -70.22413086 55.92637207 -69.60107422 55.83813477 C-66.83680704 55.44622593 -64.07269972 55.05320042 -61.30859375 54.66015625 C-60.35726562 54.52544922 -59.4059375 54.39074219 -58.42578125 54.25195312 C-53.75169505 53.58654502 -49.08591767 52.90437235 -44.43359375 52.09765625 C-44.92859375 51.14890625 -45.42359375 50.20015625 -45.93359375 49.22265625 C-47.43359375 46.09765625 -47.43359375 46.09765625 -47.43359375 44.09765625 C-48.19800781 44.10925781 -48.96242188 44.12085938 -49.75 44.1328125 C-71.94560012 44.31977905 -71.94560012 44.31977905 -79.43359375 42.09765625 C-79.43359375 41.43765625 -79.43359375 40.77765625 -79.43359375 40.09765625 C-78.65113281 39.96488281 -77.86867187 39.83210938 -77.0625 39.6953125 C-76.05058594 39.51871094 -75.03867188 39.34210938 -73.99609375 39.16015625 C-72.98675781 38.98613281 -71.97742188 38.81210938 -70.9375 38.6328125 C-68.50484995 38.35014528 -68.50484995 38.35014528 -67.43359375 37.09765625 C-63.85237961 36.86016521 -60.27803076 36.70140783 -56.69140625 36.58007812 C-52.82025312 36.40441792 -50.72162843 36.28967937 -47.43359375 34.09765625 C-47.43359375 32.44765625 -47.43359375 30.79765625 -47.43359375 29.09765625 C-66.57359375 28.76765625 -85.71359375 28.43765625 -105.43359375 28.09765625 C-105.43359375 27.10765625 -105.43359375 26.11765625 -105.43359375 25.09765625 C-93.03204172 23.10151603 -80.67380654 21.23598217 -68.12109375 20.66015625 C-61.68306145 20.35139578 -55.36690382 19.63884293 -48.99609375 18.66015625 C-48.17262451 18.53777588 -47.34915527 18.41539551 -46.50073242 18.28930664 C-42.01347714 17.66972992 -42.01347714 17.66972992 -38.43359375 15.09765625 C-37.93859375 14.16953125 -37.44359375 13.24140625 -36.93359375 12.28515625 C-33.99132424 7.78392305 -29.22978481 6.13043104 -24.43359375 4.09765625 C-23.71300781 3.78699219 -22.99242187 3.47632812 -22.25 3.15625 C-14.98364412 0.22421166 -7.74724349 -0.04766891 0 0 Z M51.56640625 104.09765625 C50.79684489 106.44299576 50.79684489 106.44299576 50.56640625 109.09765625 C51.900192 110.93313615 51.900192 110.93313615 53.56640625 112.09765625 C54.88640625 111.43765625 56.20640625 110.77765625 57.56640625 110.09765625 C57.56640625 108.44765625 57.56640625 106.79765625 57.56640625 105.09765625 C54.59066349 104.39499012 54.59066349 104.39499012 51.56640625 104.09765625 Z " fill="#302085" transform="translate(325.43359375,112.90234375)"/>
<path d="M0 0 C6.27 0.33 12.54 0.66 19 1 C20.1309709 4.3929127 19.89601128 4.99097328 18.70703125 8.2109375 C18.40853271 9.03698486 18.11003418 9.86303223 17.80249023 10.71411133 C17.47579346 11.59220459 17.14909668 12.47029785 16.8125 13.375 C16.15164388 15.19849446 15.49278625 17.02271445 14.8359375 18.84765625 C14.35592285 20.17821045 14.35592285 20.17821045 13.86621094 21.53564453 C12.78901077 24.60026079 11.84830764 27.69473539 10.9375 30.8125 C9.4819441 35.65598773 7.7906344 40.36013599 5.9375 45.0625 C5.69185303 45.69454346 5.44620605 46.32658691 5.19311523 46.9777832 C3.82386437 50.37589388 2.32351371 53.17274348 0 56 C-0.66 56.99 -1.32 57.98 -2 59 C-7.48571429 63 -7.48571429 63 -10 63 C-10 63.66 -10 64.32 -10 65 C-16.03401196 68.0669328 -21.23479092 69.74407926 -28 70 C-29.299375 70.05994141 -29.299375 70.05994141 -30.625 70.12109375 C-38.62158232 70.31419304 -48.54203226 70.34452503 -55 65 C-55 64.34 -55 63.68 -55 63 C-55.61359375 62.75378906 -56.2271875 62.50757813 -56.859375 62.25390625 C-59.43081656 60.74764213 -60.05062597 59.63609156 -61.25 56.9375 C-61.58515625 56.22464844 -61.9203125 55.51179688 -62.265625 54.77734375 C-64.23453245 47.33110334 -62.70632768 40.80755565 -60.25 33.6875 C-59.97776611 32.86080811 -59.70553223 32.03411621 -59.42504883 31.18237305 C-58.23113717 27.57104568 -56.99187439 23.97655977 -55.74609375 20.3828125 C-53.8398001 14.85385749 -52.4494422 9.84274858 -52 4 C-51.01 4 -50.02 4 -49 4 C-48.67 3.01 -48.34 2.02 -48 1 C-42.06 1 -36.12 1 -30 1 C-30.6021112 5.2147784 -31.20974189 9.28741052 -32.0625 13.4375 C-32.23910156 14.30246094 -32.41570312 15.16742188 -32.59765625 16.05859375 C-32.73042969 16.69925781 -32.86320312 17.33992188 -33 18 C-33.66 18 -34.32 18 -35 18 C-36.56901859 24.98533796 -36.56901859 24.98533796 -38 32 C-38.66 32 -39.32 32 -40 32 C-40.24942467 34.41611371 -40.47507501 36.83059121 -40.6875 39.25 C-40.76033203 39.93191406 -40.83316406 40.61382812 -40.90820312 41.31640625 C-41.16956397 44.48348472 -41.21446823 46.58948412 -39.7265625 49.4375 C-37.05407415 51.85604149 -34.52626415 51.76093124 -31 52 C-29.989375 52.0825 -28.97875 52.165 -27.9375 52.25 C-24.33924246 51.94376532 -22.06555051 50.88113327 -19 49 C-18.34 48.01 -17.68 47.02 -17 46 C-16.34 46 -15.68 46 -15 46 C-13.23566827 41.8127611 -11.88367438 37.52937098 -10.5625 33.1875 C-9.25535739 28.93125178 -7.95561984 24.70383265 -6.3125 20.5625 C-5.03071576 17.08337134 -4.21876855 13.73212074 -3.46875 10.11328125 C-2.68712266 6.58944465 -1.61415753 3.22831505 0 0 Z " fill="#322387" transform="translate(412,112)"/>
<path d="M0 0 C5.32091321 2.73619914 9.04310597 6.25162379 11 12 C11.95653109 16.54352267 9.83424722 19.4049288 7.484375 23.1328125 C5.03649079 26.21199316 3.15611006 27.78964993 -0.76953125 28.50390625 C-1.77371094 28.52324219 -2.77789062 28.54257813 -3.8125 28.5625 C-4.80894531 28.60503906 -5.80539062 28.64757812 -6.83203125 28.69140625 C-10.353617 27.92282342 -10.48599341 27.5563846 -12.6796875 25.00488281 C-18.36422628 20.0093931 -26.16334615 21.1711426 -33.29296875 21.23046875 C-34.88765661 21.22174715 -36.4823315 21.2102538 -38.07698059 21.19612122 C-42.25954265 21.16581127 -46.44133699 21.1701443 -50.6239624 21.18273926 C-55.71006034 21.19218464 -60.79605728 21.16369142 -65.88207722 21.13767719 C-69.837773 21.11771068 -73.79307704 21.10439256 -77.74882507 21.11186218 C-78.47582611 21.11154495 -79.20282715 21.11122772 -79.95185852 21.11090088 C-81.91213603 21.11015871 -83.87241382 21.11383709 -85.83268738 21.11784363 C-90.58413967 20.9410602 -90.58413967 20.9410602 -93 20 C-94.625 17.5 -94.625 17.5 -96 15 C-96.66 14.67 -97.32 14.34 -98 14 C-98.8125 11.125 -98.8125 11.125 -99 8 C-97.5625 6.125 -97.5625 6.125 -96 5 C-95.34 5.33 -94.68 5.66 -94 6 C-94 6.66 -94 7.32 -94 8 C-91.36 8.33 -88.72 8.66 -86 9 C-86 8.67 -86 8.34 -86 8 C-79.54865416 7.85429819 -73.09723269 7.71235318 -66.64575195 7.57275391 C-64.46116358 7.52507154 -62.27659231 7.47659764 -60.09204102 7.42724609 C-57.96990611 7.37940408 -55.84774356 7.33277273 -53.72555542 7.28735352 C-51.60725837 7.24157935 -49.48902852 7.19258294 -47.37088013 7.14038086 C-42.21778347 7.02616938 -37.09468813 6.99986181 -31.94287109 7.1796875 C-30.51191353 7.2189032 -30.51191353 7.2189032 -29.05204773 7.25891113 C-27.26916066 7.31373309 -25.48678294 7.39302048 -23.70637512 7.50183105 C-19.15799213 7.65765469 -19.15799213 7.65765469 -15.19815063 5.67504883 C-13.60000734 4.08445218 -13.60000734 4.08445218 -12.27876282 2.39807129 C-9.24954308 -0.91377441 -4.14579808 -0.77457082 0 0 Z M-7 11 C-7.76956136 13.34533951 -7.76956136 13.34533951 -8 16 C-6.66621425 17.8354799 -6.66621425 17.8354799 -5 19 C-3.68 18.34 -2.36 17.68 -1 17 C-1 15.35 -1 13.7 -1 12 C-3.97574276 11.29733387 -3.97574276 11.29733387 -7 11 Z " fill="#2F2080" transform="translate(384,206)"/>
<path d="M0 0 C0.87793716 0.00141495 1.75587433 0.0028299 2.66041565 0.00428772 C5.44161507 0.00984804 8.22273151 0.02239304 11.00390625 0.03515625 C12.89908737 0.04017638 14.79426977 0.04473839 16.68945312 0.04882812 C21.31513573 0.05980445 25.94075696 0.07704143 30.56640625 0.09765625 C31.84033226 5.09076222 30.80637074 7.45180398 28.56640625 12.09765625 C28.19515625 13.04640625 27.82390625 13.99515625 27.44140625 14.97265625 C26.56640625 17.09765625 26.56640625 17.09765625 25.56640625 18.09765625 C23.17384097 18.14919547 20.80903462 18.13933484 18.41796875 18.08984375 C16.92188218 18.07229392 15.42578792 18.05538897 13.9296875 18.0390625 C11.57546501 18.00838701 9.22163204 17.97325962 6.86767578 17.92626953 C-8.86961709 17.13471836 -8.86961709 17.13471836 -22.55859375 23.59765625 C-24.58511955 26.02518739 -24.58511955 26.02518739 -25.43359375 29.09765625 C-26.75359375 28.76765625 -28.07359375 28.43765625 -29.43359375 28.09765625 C-27.68359375 23.22265625 -27.68359375 23.22265625 -25.43359375 22.09765625 C-25.02630147 19.77609028 -24.68920698 17.44077755 -24.43359375 15.09765625 C-26.41359375 15.09765625 -28.39359375 15.09765625 -30.43359375 15.09765625 C-30.43359375 10.23584975 -29.17444238 9.02697283 -26.0625 5.578125 C-24.30456238 3.98038313 -22.90567668 3.28149444 -20.68359375 2.47265625 C-20.049375 2.23289062 -19.41515625 1.993125 -18.76171875 1.74609375 C-12.56344475 0.01972884 -6.37541164 -0.039228 0 0 Z " fill="#38298A" transform="translate(325.43359375,112.90234375)"/>
<path d="M0 0 C1.89611434 0.14213297 3.79188394 0.28886907 5.6875 0.4375 C6.74324219 0.51871094 7.79898437 0.59992188 8.88671875 0.68359375 C11.65086297 0.96451681 14.28945741 1.40156852 17 2 C17 2.66 17 3.32 17 4 C18.32 4.66 19.64 5.32 21 6 C19.84826645 8.46800047 18.95216435 10.04783565 17 12 C16.01 12 15.02 12 14 12 C14 11.34 14 10.68 14 10 C12.04174127 9.97305149 10.08337774 9.95362782 8.125 9.9375 C7.03445313 9.92589844 5.94390625 9.91429687 4.8203125 9.90234375 C2.04822454 9.80255697 2.04822454 9.80255697 0 11 C-0.72693904 12.97888961 -1.39816251 14.97954558 -2 17 C-2.99 17 -3.98 17 -5 17 C-4.17720273 21.41318533 -3.49242976 24.28373852 -0.9375 28 C3.03893961 30.70736314 6.31497892 30.64430545 11 30 C11.66 29.67 12.32 29.34 13 29 C13.65555119 26.47266765 13.65555119 26.47266765 14 24 C13.443125 24.185625 12.88625 24.37125 12.3125 24.5625 C9.600867 25.07551165 7.65628961 24.6640724 5 24 C4.61866701 22.0085944 4.28674418 20.00720923 4 18 C5.82116003 16.17883997 8.30671764 16.8676492 10.7265625 16.86328125 C11.85191406 16.86908203 11.85191406 16.86908203 13 16.875 C13.75023437 16.87113281 14.50046875 16.86726563 15.2734375 16.86328125 C20.87338947 16.87338947 20.87338947 16.87338947 22 18 C22.34167119 20.09383114 22.59884344 22.20176105 22.8125 24.3125 C22.94269531 25.46363281 23.07289063 26.61476563 23.20703125 27.80078125 C23 31 23 31 21.2421875 33.27734375 C16.02606489 37.28485258 11.07698107 39.77082494 4.37109375 39.45703125 C-1.63370525 38.29959882 -8.37805959 35.03922145 -12 30 C-13.00946386 26.13266212 -13.16440349 22.42395817 -13.1875 18.4375 C-13.20167969 17.32246094 -13.21585938 16.20742188 -13.23046875 15.05859375 C-13.00064967 12.00862183 -12.74468633 10.47477046 -11 8 C-8.90625 6.296875 -8.90625 6.296875 -6.5 4.75 C-5.30890625 3.96882813 -5.30890625 3.96882813 -4.09375 3.171875 C-2 2 -2 2 0 2 C0 1.34 0 0.68 0 0 Z " fill="#281D7D" transform="translate(261,254)"/>
<path d="M0 0 C6.1477108 1.37649198 12.11240402 3.29330614 18.02734375 5.44921875 C20.30075712 6.17928161 20.30075712 6.17928161 24 6 C24.83739781 8.1234016 25.66980283 10.2487728 26.5 12.375 C26.9640625 13.55835937 27.428125 14.74171875 27.90625 15.9609375 C29 19 29 19 29 21 C29.66 21 30.32 21 31 21 C32.32 26.61 33.64 32.22 35 38 C25.42857143 40.28571429 25.42857143 40.28571429 21 40 C15.40907303 27.78681002 15.40907303 27.78681002 14.5625 22.01953125 C13.33846284 18.92648095 13.33846284 18.92648095 11.02783203 18.01782227 C8.41097662 17.1918984 5.79511552 16.50788853 3.125 15.875 C-8.10201395 13.09603615 -8.10201395 13.09603615 -11 9 C-11.5 6.5 -11.5 6.5 -11 4 C-7.93889465 -0.53043591 -5.23114167 -0.58123796 0 0 Z " fill="#2F2181" transform="translate(244,90)"/>
<path d="M0 0 C1.5 1.8125 1.5 1.8125 2 4 C1.84370117 4.62165039 1.68740234 5.24330078 1.52636719 5.88378906 C0.97960116 8.08201166 0.95570683 9.79331616 1.078125 12.046875 C1.67022249 27.3311012 1.67022249 27.3311012 -2.5703125 32.58984375 C-7.21580826 37.17187646 -9.98553696 38.83557474 -16.4375 39.1875 C-22.21207611 38.88357494 -25.79541845 36.96431975 -30 33 C-30 32.01 -30 31.02 -30 30 C-30.66 30 -31.32 30 -32 30 C-32.66 27.69 -33.32 25.38 -34 23 C-33.34 23 -32.68 23 -32 23 C-32.14230808 21.58297487 -32.28900746 20.1663904 -32.4375 18.75 C-32.51871094 17.96109375 -32.59992188 17.1721875 -32.68359375 16.359375 C-32.94871809 14.0012079 -32.94871809 14.0012079 -33.59765625 11.765625 C-33.73042969 11.18296875 -33.86320312 10.6003125 -34 10 C-33.67 9.67 -33.34 9.34 -33 9 C-32.63239269 6.67182036 -32.29758419 4.3381615 -32 2 C-29.36 2 -26.72 2 -24 2 C-23.19564556 4.80952611 -22.89792287 7.23506103 -22.97265625 10.15234375 C-22.98490234 10.92900391 -22.99714844 11.70566406 -23.00976562 12.50585938 C-23.04483914 14.1231383 -23.08388305 15.74033615 -23.12695312 17.35742188 C-23.18762565 21.66517118 -23.17125702 25.13410335 -21 29 C-18.2540274 30.3729863 -16.0410953 30.12412634 -13 30 C-12.01 29.67 -11.02 29.34 -10 29 C-8.90142276 22.8323971 -8.88460896 16.81584877 -8.9375 10.5625 C-8.94201172 9.54478516 -8.94652344 8.52707031 -8.95117188 7.47851562 C-8.96287563 4.98561491 -8.97927152 2.49283926 -9 0 C-5.81926598 -1.59036701 -3.37573597 -0.78365299 0 0 Z " fill="#271B70" transform="translate(320,254)"/>
<path d="M0 0 C1.75 2.375 1.75 2.375 3 5 C3.89335797 7.35785318 3.89335797 7.35785318 7.0625 8.125 C8.031875 8.41375 9.00125 8.7025 10 9 C9.67 10.32 9.34 11.64 9 13 C6.03 13 3.06 13 0 13 C0.28062943 15.48088355 0.57390599 17.95909185 0.875 20.4375 C0.95363281 21.14455078 1.03226562 21.85160156 1.11328125 22.58007812 C1.33927676 24.39673432 1.66300727 26.20062522 2 28 C4.60097682 29.30048841 7.13955062 29.56471422 10 30 C9.34 32.31 8.68 34.62 8 37 C0.7027027 38.21621622 0.7027027 38.21621622 -2.4375 37.25 C-4 36 -4 36 -5 33 C-5.08106686 31.44578271 -5.10756898 29.88832973 -5.09765625 28.33203125 C-5.09443359 27.43935547 -5.09121094 26.54667969 -5.08789062 25.62695312 C-5.07951172 24.69818359 -5.07113281 23.76941406 -5.0625 22.8125 C-5.05798828 21.87212891 -5.05347656 20.93175781 -5.04882812 19.96289062 C-5.03704626 17.64186288 -5.02059558 15.32096356 -5 13 C-6.32 13 -7.64 13 -9 13 C-9.33 12.34 -9.66 11.68 -10 11 C-10.33 11.66 -10.66 12.32 -11 13 C-13.5625 13.625 -13.5625 13.625 -16 14 C-16.1546875 14.86625 -16.1546875 14.86625 -16.3125 15.75 C-17 18 -17 18 -18.53515625 19.7265625 C-20.52521917 22.81514015 -20.26456399 24.98812656 -20.125 28.625 C-19.91578947 34.83157895 -19.91578947 34.83157895 -21 37 C-22.65 37 -24.3 37 -26 37 C-26.99 34.36 -27.98 31.72 -29 29 C-28.67 28.67 -28.34 28.34 -28 28 C-27.91330568 26.5112814 -27.89296506 25.018555 -27.90234375 23.52734375 C-27.90556641 22.62822266 -27.90878906 21.72910156 -27.91210938 20.80273438 C-27.92048828 19.85720703 -27.92886719 18.91167969 -27.9375 17.9375 C-27.94201172 16.98810547 -27.94652344 16.03871094 -27.95117188 15.06054688 C-27.9629989 12.70696935 -27.97947975 10.35351523 -28 8 C-24.98968256 7.06576355 -24.13349732 6.95550089 -21 8 C-21 8.99 -21 9.98 -21 11 C-19.66402348 10.19185349 -18.331275 9.37836819 -17 8.5625 C-16.2575 8.11003906 -15.515 7.65757812 -14.75 7.19140625 C-14.1725 6.79824219 -13.595 6.40507812 -13 6 C-13 5.67 -13 5.34 -13 5 C-11.35 5 -9.7 5 -8 5 C-7.87625 4.360625 -7.7525 3.72125 -7.625 3.0625 C-7.315625 2.0415625 -7.315625 2.0415625 -7 1 C-4.39722303 -0.30138849 -2.88185107 -0.4217343 0 0 Z " fill="#322D79" transform="translate(413,255)"/>
<path d="M0 0 C0 0.66 0 1.32 0 2 C0.969375 2.268125 1.93875 2.53625 2.9375 2.8125 C3.948125 3.204375 4.95875 3.59625 6 4 C7.2077558 7.62326739 6.54311128 8.64146369 5 12 C5.66 12 6.32 12 7 12 C8.70159453 24.66970387 8.70159453 24.66970387 5 30 C2.33333333 30 -0.33333333 30 -3 30 C-3.66 30.33 -4.32 30.66 -5 31 C-13.39097744 31.40601504 -13.39097744 31.40601504 -17 29 C-17 28.34 -17 27.68 -17 27 C-17.66 27 -18.32 27 -19 27 C-20.85163386 24.27700903 -20.99554719 22.91836514 -20.8125 19.5625 C-20.02560366 16.11226222 -19.00780255 13.88076018 -17 11 C-15.35 11.33 -13.7 11.66 -12 12 C-11.67 11.34 -11.34 10.68 -11 10 C-8.36 10.33 -5.72 10.66 -3 11 C-2.67 9.68 -2.34 8.36 -2 7 C-9.56407533 6.79410279 -9.56407533 6.79410279 -17 8 C-17.33 7.01 -17.66 6.02 -18 5 C-19.65 4.67 -21.3 4.34 -23 4 C-23 3.34 -23 2.68 -23 2 C-19.73094303 1.46757884 -16.45956659 0.95107317 -13.1875 0.4375 C-12.25873047 0.28603516 -11.32996094 0.13457031 -10.37304688 -0.02148438 C-9.48037109 -0.16005859 -8.58769531 -0.29863281 -7.66796875 -0.44140625 C-6.84578857 -0.57232666 -6.0236084 -0.70324707 -5.17651367 -0.83813477 C-3 -1 -3 -1 0 0 Z M-13 17 C-13.66 18.32 -14.32 19.64 -15 21 C-14.01 21.33 -13.02 21.66 -12 22 C-11.01 23.485 -11.01 23.485 -10 25 C-7.36 24.67 -4.72 24.34 -2 24 C-1.67 21.69 -1.34 19.38 -1 17 C-4.96 17 -8.92 17 -13 17 Z " fill="#453E85" transform="translate(374,262)"/>
<path d="M0 0 C0.495 1.98 0.495 1.98 1 4 C1.97582031 4 2.95164062 4 3.95703125 4 C8.97135417 4 13.98567708 4 19 4 C19.12117188 4.90363281 19.24234375 5.80726563 19.3671875 6.73828125 C19.61855469 8.50751953 19.61855469 8.50751953 19.875 10.3125 C20.03742188 11.48425781 20.19984375 12.65601563 20.3671875 13.86328125 C20.82300621 17.14530895 20.82300621 17.14530895 23 20 C21.02 19.67 19.04 19.34 17 19 C16.67 19.66 16.34 20.32 16 21 C13.9375 21.625 13.9375 21.625 12 22 C12.495 22.99 12.495 22.99 13 24 C9.57544008 23.98714987 6.32879515 23.84157945 3 23 C0.96609359 20.1884235 0 18.47628604 0 15 C-1.14662109 15.01740234 -1.14662109 15.01740234 -2.31640625 15.03515625 C-24.51200637 15.2221228 -24.51200637 15.2221228 -32 13 C-32 12.34 -32 11.68 -32 11 C-31.21753906 10.86722656 -30.43507812 10.73445312 -29.62890625 10.59765625 C-28.61699219 10.42105469 -27.60507813 10.24445313 -26.5625 10.0625 C-25.55316406 9.88847656 -24.54382813 9.71445313 -23.50390625 9.53515625 C-21.0712562 9.25248903 -21.0712562 9.25248903 -20 8 C-16.41878586 7.76250896 -12.84443701 7.60375158 -9.2578125 7.48242188 C-5.38665937 7.30676167 -3.28803468 7.19202312 0 5 C0.25030977 2.41619823 0.25030977 2.41619823 0 0 Z " fill="#322386" transform="translate(278,142)"/>
<path d="M0 0 C0 2.83967231 -0.40267181 5.23735711 -1 8 C-2.32 8 -3.64 8 -5 8 C-5 7.34 -5 6.68 -5 6 C-6.39403756 5.89066372 -7.79063776 5.81380447 -9.1875 5.75 C-9.96480469 5.70359375 -10.74210937 5.6571875 -11.54296875 5.609375 C-14.73016517 5.90853114 -14.73016517 5.90853114 -19 10 C-18.34 14.29 -17.68 18.58 -17 23 C-16.34 23 -15.68 23 -15 23 C-14.67 22.34 -14.34 21.68 -14 21 C-11.27734375 20.5859375 -11.27734375 20.5859375 -7.9375 20.375 C-6.83277344 20.30023438 -5.72804688 20.22546875 -4.58984375 20.1484375 C-3.73519531 20.09945313 -2.88054687 20.05046875 -2 20 C-1.34 21.32 -0.68 22.64 0 24 C-2.86085748 27.59914328 -4.98207184 29.33410392 -9.5 29.9375 C-14.66609084 30.22830644 -17.5327956 29.03371219 -21.75 26.0625 C-24 24 -24 24 -25 21 C-25.66 20.67 -26.32 20.34 -27 20 C-26.71167583 13.09463613 -25.80229795 6.9103747 -22 1 C-16.3496835 -3.15464448 -6.55753235 -1.14044041 0 0 Z " fill="#251A6E" transform="translate(351,263)"/>
<path d="M0 0 C3.63 0 7.26 0 11 0 C11.33168041 4.7540859 10.59443287 7.05646203 8 11 C7.30420546 13.19130534 7.30420546 13.19130534 7 15 C0.54002159 16.17895505 -5.82220751 16.36284973 -12.375 16.5625 C-13.04031738 16.58367889 -13.70563477 16.60485779 -14.39111328 16.62667847 C-35.91831298 17.29356465 -57.46554704 17.08765903 -79 17 C-79 16.67 -79 16.34 -79 16 C-62.39221753 13.69159283 -45.76028613 13.5726199 -29.02740479 13.39910889 C-25.29227475 13.35845259 -21.55728245 13.30764849 -17.82226562 13.2578125 C-10.54827307 13.16219471 -3.27421125 13.07744217 4 13 C4 12.34 4 11.68 4 11 C4.66 11 5.32 11 6 11 C6 9.68 6 8.36 6 7 C4.02 7 2.04 7 0 7 C-0.495 6.01 -0.495 6.01 -1 5 C-4.4374823 4.97098606 -7.87493312 4.95319665 -11.3125 4.9375 C-12.28896484 4.92912109 -13.26542969 4.92074219 -14.27148438 4.91210938 C-15.20927734 4.90888672 -16.14707031 4.90566406 -17.11328125 4.90234375 C-17.97735596 4.89710693 -18.84143066 4.89187012 -19.73168945 4.88647461 C-22.16728714 4.90664477 -22.16728714 4.90664477 -25 6 C-27.22818441 6.06937062 -29.45834524 6.08457084 -31.6875 6.0625 C-33.45673828 6.04896484 -33.45673828 6.04896484 -35.26171875 6.03515625 C-36.16535156 6.02355469 -37.06898438 6.01195312 -38 6 C-38 5.34 -38 4.68 -38 4 C-44.27 4 -50.54 4 -57 4 C-57 3.67 -57 3.34 -57 3 C-56.10583374 2.9845388 -56.10583374 2.9845388 -55.19360352 2.96876526 C-48.96376677 2.86020272 -42.73406022 2.74564838 -36.50439453 2.62768555 C-34.18248226 2.58449546 -31.86054149 2.54280982 -29.53857422 2.50268555 C-26.19229559 2.44459541 -22.84615837 2.38101436 -19.5 2.31640625 C-18.4694751 2.29969376 -17.4389502 2.28298126 -16.37719727 2.26576233 C-10.84242521 2.15316458 -5.47867369 1.80182672 0 1 C0 0.67 0 0.34 0 0 Z " fill="#423881" transform="translate(395,185)"/>
<path d="M0 0 C1.12535156 0.00580078 1.12535156 0.00580078 2.2734375 0.01171875 C3.02367187 0.00785156 3.77390625 0.00398438 4.546875 0 C10.14682697 0.01010822 10.14682697 0.01010822 11.2734375 1.13671875 C11.61510869 3.23054989 11.87228094 5.3384798 12.0859375 7.44921875 C12.21613281 8.60035156 12.34632813 9.75148438 12.48046875 10.9375 C12.2734375 14.13671875 12.2734375 14.13671875 10.59765625 16.4296875 C5.49959319 20.17397919 1.3280841 20.37073479 -4.8515625 19.88671875 C-5.56699219 19.84675781 -6.28242188 19.80679687 -7.01953125 19.765625 C-10.69056225 19.51174061 -12.60682416 19.21654431 -15.7265625 17.13671875 C-15.0665625 14.49671875 -14.4065625 11.85671875 -13.7265625 9.13671875 C-13.0871875 9.79671875 -12.4478125 10.45671875 -11.7890625 11.13671875 C-7.73356602 13.78520624 -4.45378992 13.70324306 0.2734375 13.13671875 C0.9334375 12.80671875 1.5934375 12.47671875 2.2734375 12.13671875 C2.92898869 9.6093864 2.92898869 9.6093864 3.2734375 7.13671875 C2.7165625 7.32234375 2.1596875 7.50796875 1.5859375 7.69921875 C-1.1256955 8.2122304 -3.07027289 7.80079115 -5.7265625 7.13671875 C-6.10789549 5.14531315 -6.43981832 3.14392798 -6.7265625 1.13671875 C-4.90540247 -0.68444128 -2.41984486 0.00436795 0 0 Z " fill="#281D77" transform="translate(271.7265625,270.86328125)"/>
<path d="M0 0 C4.50873104 2.19343672 6.22153302 4.31982374 8 9 C8.95653109 13.54352267 6.83424722 16.4049288 4.484375 20.1328125 C2.77536575 22.28256624 1.39298308 23.63077553 -1 25 C-4.015625 25.29296875 -4.015625 25.29296875 -7.25 25.1875 C-8.86648438 25.14689453 -8.86648438 25.14689453 -10.515625 25.10546875 C-11.74539063 25.05326172 -11.74539063 25.05326172 -13 25 C-13 24.67 -13 24.34 -13 24 C-12.30132812 23.97421875 -11.60265625 23.9484375 -10.8828125 23.921875 C-9.97273438 23.86515625 -9.06265625 23.8084375 -8.125 23.75 C-7.22007812 23.70359375 -6.31515625 23.6571875 -5.3828125 23.609375 C-2.82889456 23.24388852 -2.82889456 23.24388852 -1.6796875 20.953125 C-1.34324219 19.98632812 -1.34324219 19.98632812 -1 19 C-2.32 18.67 -3.64 18.34 -5 18 C-5 18.66 -5 19.32 -5 20 C-5.99 20.33 -6.98 20.66 -8 21 C-8 20.34 -8 19.68 -8 19 C-8.66 18.67 -9.32 18.34 -10 18 C-9.67 17.67 -9.34 17.34 -9 17 C-9.66 16.67 -10.32 16.34 -11 16 C-11.66 16.66 -12.32 17.32 -13 18 C-14.46726798 14.18510326 -13.43336419 11.70988378 -12 8 C-11.34 8.33 -10.68 8.66 -10 9 C-10 10.65 -10 12.3 -10 14 C-9.01 14.33 -8.02 14.66 -7 15 C-6.34 14.34 -5.68 13.68 -5 13 C-5 11.68 -5 10.36 -5 9 C-7.31 8.34 -9.62 7.68 -12 7 C-9.09907498 5.06604999 -8.10325263 4.69868059 -4.8125 4.375 C-3.554375 4.25125 -2.29625 4.1275 -1 4 C-0.67 2.68 -0.34 1.36 0 0 Z " fill="#362882" transform="translate(387,209)"/>
<path d="M0 0 C0 0.99 0 1.98 0 3 C1.32 2.01 2.64 1.02 4 0 C4.66 0.33 5.32 0.66 6 1 C5.67 1.99 5.34 2.98 5 4 C3.68 4 2.36 4 1 4 C-0.81602517 8.53832753 -0.81602517 8.53832753 0 13 C0.25681935 15.32849545 0.45741502 17.66338653 0.625 20 C0.72039062 21.258125 0.81578125 22.51625 0.9140625 23.8125 C1 27 1 27 0 29 C-1.65 29 -3.3 29 -5 29 C-5.99 26.36 -6.98 23.72 -8 21 C-7.67 20.67 -7.34 20.34 -7 20 C-6.91330568 18.5112814 -6.89296506 17.018555 -6.90234375 15.52734375 C-6.90556641 14.62822266 -6.90878906 13.72910156 -6.91210938 12.80273438 C-6.92048828 11.85720703 -6.92886719 10.91167969 -6.9375 9.9375 C-6.94201172 8.98810547 -6.94652344 8.03871094 -6.95117188 7.06054688 C-6.9629989 4.70696935 -6.97947975 2.35351523 -7 0 C-3.86650268 -1.04449911 -3.01031744 -0.93423645 0 0 Z " fill="#564A9B" transform="translate(392,263)"/>
<path d="M0 0 C1.67542976 0.28604898 3.34385343 0.61781233 5 1 C5 1.66 5 2.32 5 3 C6.98 2.67 8.96 2.34 11 2 C11 3.65 11 5.3 11 7 C14.8334266 9.51734235 18.83888501 9.34737827 23.265625 9.4140625 C24.05902283 9.43342865 24.85242065 9.4527948 25.66986084 9.4727478 C28.19646557 9.53238361 30.72311625 9.57886443 33.25 9.625 C34.96616537 9.66319455 36.68231187 9.70224715 38.3984375 9.7421875 C42.59880456 9.83807186 46.79926134 9.92216167 51 10 C51 10.33 51 10.66 51 11 C41.76 11.33 32.52 11.66 23 12 C23 12.33 23 12.66 23 13 C17.47322267 13.19392201 13.24385089 12.7479503 8 11 C8 10.34 8 9.68 8 9 C7.01 9 6.02 9 5 9 C4.02391783 11.92824652 3.91773332 13.95613276 4 17 C4.99 17.33 5.98 17.66 7 18 C8.1875 20.0625 8.1875 20.0625 9 22 C4.67883171 20.88884244 2.37655649 18.88435631 -0.05859375 15.28125 C-1.92632035 10.7553067 -1.52952339 5.795969 -1 1 C-0.67 0.67 -0.34 0.34 0 0 Z " fill="#4E4395" transform="translate(282,203)"/>
<path d="M0 0 C0.99 0.33 1.98 0.66 3 1 C3.6875 3.0625 3.6875 3.0625 4 5 C4.33 5 4.66 5 5 5 C6.93185622 21.83201463 6.93185622 21.83201463 3.875 26.8125 C0.69531107 30.74086914 -2.79264293 34.38736976 -8 35 C-12.52013794 35.24655298 -15.95741592 35.14019157 -20 33 C-20.33 32.34 -20.66 31.68 -21 31 C-18.32568069 30.92359088 -15.99964263 31.00007658 -13.375 31.5625 C-10.86351334 32.22276055 -10.86351334 32.22276055 -8 31 C-7.67 30.34 -7.34 29.68 -7 29 C-4.69 29 -2.38 29 0 29 C0 28.01 0 27.02 0 26 C0.66 25.67 1.32 25.34 2 25 C1.26523437 23.54207031 1.26523437 23.54207031 0.515625 22.0546875 C-1.34481569 17.71001131 -1.37874118 13.79186775 -1.25 9.125 C-1.24484375 8.35414063 -1.2396875 7.58328125 -1.234375 6.7890625 C-1.15502232 1.15502232 -1.15502232 1.15502232 0 0 Z " fill="#2C1F80" transform="translate(315,258)"/>
<path d="M0 0 C0.04898437 0.62648437 0.09796875 1.25296875 0.1484375 1.8984375 C0.22320312 2.71570313 0.29796875 3.53296875 0.375 4.375 C0.44460938 5.18710937 0.51421875 5.99921875 0.5859375 6.8359375 C0.82892588 9.20334191 0.82892588 9.20334191 3 11 C-0.50871784 12.91384609 -1.81367786 13.04276246 -5.8125 12.125 C-6.864375 11.75375 -7.91625 11.3825 -9 11 C-9.33 11.66 -9.66 12.32 -10 13 C-12.5625 13.625 -12.5625 13.625 -15 14 C-15.0825 14.5775 -15.165 15.155 -15.25 15.75 C-16.20531013 18.6159304 -17.78469173 19.9990764 -20 22 C-21.1875 20.375 -21.1875 20.375 -22 18 C-20.03863988 12.55177743 -20.03863988 12.55177743 -17 10.9375 C-16.34 10.628125 -15.68 10.31875 -15 10 C-14.525625 9.13375 -14.05125 8.2675 -13.5625 7.375 C-13.046875 6.59125 -12.53125 5.8075 -12 5 C-9.3125 4.6875 -9.3125 4.6875 -7 5 C-6.87625 4.360625 -6.7525 3.72125 -6.625 3.0625 C-6.41875 2.381875 -6.2125 1.70125 -6 1 C-4 0 -4 0 0 0 Z " fill="#26187D" transform="translate(412,255)"/>
<path d="M0 0 C3.63 0 7.26 0 11 0 C11.3227506 4.62609198 10.84450614 7.28026121 8 11 C7.34 11 6.68 11 6 11 C6 9.68 6 8.36 6 7 C4.02 7 2.04 7 0 7 C-0.495 6.01 -0.495 6.01 -1 5 C-4.4374823 4.97098606 -7.87493312 4.95319665 -11.3125 4.9375 C-12.28896484 4.92912109 -13.26542969 4.92074219 -14.27148438 4.91210938 C-15.20927734 4.90888672 -16.14707031 4.90566406 -17.11328125 4.90234375 C-17.97735596 4.89710693 -18.84143066 4.89187012 -19.73168945 4.88647461 C-22.16728714 4.90664477 -22.16728714 4.90664477 -25 6 C-27.22818441 6.06937062 -29.45834524 6.08457084 -31.6875 6.0625 C-33.45673828 6.04896484 -33.45673828 6.04896484 -35.26171875 6.03515625 C-36.16535156 6.02355469 -37.06898438 6.01195312 -38 6 C-38 5.34 -38 4.68 -38 4 C-44.27 4 -50.54 4 -57 4 C-57 3.67 -57 3.34 -57 3 C-56.10583374 2.9845388 -56.10583374 2.9845388 -55.19360352 2.96876526 C-48.96376677 2.86020272 -42.73406022 2.74564838 -36.50439453 2.62768555 C-34.18248226 2.58449546 -31.86054149 2.54280982 -29.53857422 2.50268555 C-26.19229559 2.44459541 -22.84615837 2.38101436 -19.5 2.31640625 C-18.4694751 2.29969376 -17.4389502 2.28298126 -16.37719727 2.26576233 C-10.84242521 2.15316458 -5.47867369 1.80182672 0 1 C0 0.67 0 0.34 0 0 Z " fill="#302787" transform="translate(395,185)"/>
<path d="M0 0 C0.33 0 0.66 0 1 0 C1 2.97 1 5.94 1 9 C1.66 9 2.32 9 3 9 C3 8.34 3 7.68 3 7 C3.99 7 4.98 7 6 7 C6.66 6.34 7.32 5.68 8 5 C10.48063781 16.52164009 10.48063781 16.52164009 9 22 C12.71429898 23.1161656 16.39161508 23.3124195 20.25 23.5625 C21.51328125 23.64628906 22.7765625 23.73007812 24.078125 23.81640625 C25.52445312 23.90728516 25.52445312 23.90728516 27 24 C27 24.66 27 25.32 27 26 C20.77540726 28.07486425 15.59589427 27.59931439 9.6875 24.75 C6.30284983 22.8789822 3.29190452 21.18873673 1 18 C-0.05626204 14.03549648 -0.1037949 10.27569472 -0.0625 6.1875 C-0.05347656 5.02605469 -0.04445312 3.86460937 -0.03515625 2.66796875 C-0.02355469 1.78753906 -0.01195312 0.90710938 0 0 Z " fill="#3C3085" transform="translate(248,266)"/>
<path d="M0 0 C0.66 0 1.32 0 2 0 C2.33 1.32 2.66 2.64 3 4 C3.66 4 4.32 4 5 4 C5.33 3.34 5.66 2.68 6 2 C8.72265625 1.5859375 8.72265625 1.5859375 12.0625 1.375 C13.16722656 1.30023438 14.27195312 1.22546875 15.41015625 1.1484375 C16.26480469 1.09945313 17.11945313 1.05046875 18 1 C18.66 2.32 19.32 3.64 20 5 C17.13914252 8.59914328 15.01792816 10.33410392 10.5 10.9375 C6.81393897 11.13889075 4.2188659 10.96708472 1 9 C-1.8125 6.375 -1.8125 6.375 -4 4 C-2.68 4 -1.36 4 0 4 C0 2.68 0 1.36 0 0 Z " fill="#2B257B" transform="translate(331,282)"/>
<path d="M0 0 C0.33 1.32 0.66 2.64 1 4 C0.34 4 -0.32 4 -1 4 C-1 4.66 -1 5.32 -1 6 C10.88 6 22.76 6 35 6 C34.67 6.66 34.34 7.32 34 8 C4.795 7.505 4.795 7.505 -25 7 C-25 6.01 -25 5.02 -25 4 C-24.20078125 3.87882813 -23.4015625 3.75765625 -22.578125 3.6328125 C-15.04129734 2.48282706 -7.51698571 1.27314713 0 0 Z " fill="#8685A5" transform="translate(245,134)"/>
<path d="M0 0 C0.66 0.66 1.32 1.32 2 2 C3.9931567 2.02375926 3.9931567 2.02375926 6.125 1.625 C7.40375 1.41875 8.6825 1.2125 10 1 C10 1.66 10 2.32 10 3 C11.32 3.33 12.64 3.66 14 4 C14 4.33 14 4.66 14 5 C10.7 5 7.4 5 4 5 C3.34 6.65 2.68 8.3 2 10 C3.32 10.33 4.64 10.66 6 11 C6 12.65 6 14.3 6 16 C3.1875 16.6875 3.1875 16.6875 0 17 C-2.31563556 15.56270896 -2.87044036 14.32389911 -3.875 11.8125 C-4.05312465 7.80469542 -2.69657427 4.59472173 -1 1 C-0.67 0.67 -0.34 0.34 0 0 Z " fill="#3E3586" transform="translate(357,273)"/>
<path d="M0 0 C1.39456867 0.00574201 2.78910972 0.01875397 4.18359375 0.03515625 C6.63796875 0.05578125 9.09234375 0.07640625 11.62109375 0.09765625 C11.62109375 5.37765625 11.62109375 10.65765625 11.62109375 16.09765625 C10.30109375 14.77765625 8.98109375 13.45765625 7.62109375 12.09765625 C7.62109375 11.43765625 7.62109375 10.77765625 7.62109375 10.09765625 C6.96109375 9.76765625 6.30109375 9.43765625 5.62109375 9.09765625 C5.62109375 8.43765625 5.62109375 7.77765625 5.62109375 7.09765625 C5.06421875 7.28328125 4.50734375 7.46890625 3.93359375 7.66015625 C1.22196075 8.1731679 -0.72261664 7.76172865 -3.37890625 7.09765625 C-3.76023924 5.10625065 -4.09216207 3.10486548 -4.37890625 1.09765625 C-3.37890625 0.09765625 -3.37890625 0.09765625 0 0 Z " fill="#281C71" transform="translate(269.37890625,270.90234375)"/>
<path d="M0 0 C-0.33 0.66 -0.66 1.32 -1 2 C-3.64 2 -6.28 2 -9 2 C-8.67 3.98 -8.34 5.96 -8 8 C-10.5216376 7.88496731 -13.0418119 7.75825223 -15.5625 7.625 C-16.61920898 7.57859375 -16.61920898 7.57859375 -17.69726562 7.53125 C-22.41295741 7.27047442 -26.50385496 6.45341877 -31 5 C-31 4.34 -31 3.68 -31 3 C-27.71010715 2.48785549 -24.41787138 1.99259936 -21.125 1.5 C-20.2071875 1.35691406 -19.289375 1.21382812 -18.34375 1.06640625 C-12.18160616 0.15510329 -6.22641762 -0.18278149 0 0 Z " fill="#403779" transform="translate(285,166)"/>
<path d="M0 0 C9.41002278 -0.18451025 9.41002278 -0.18451025 14 1 C14 1.66 14 2.32 14 3 C20.01370279 4.7182008 25.9402326 4.28540521 32 3 C32.66 3.33 33.32 3.66 34 4 C34.12375 4.969375 34.2475 5.93875 34.375 6.9375 C34.6491645 10.11582828 34.6491645 10.11582828 37.0625 11.375 C37.701875 11.58125 38.34125 11.7875 39 12 C36.69 12 34.38 12 32 12 C32.33 10.02 32.66 8.04 33 6 C21.12 6 9.24 6 -3 6 C-3 5.34 -3 4.68 -3 4 C-2.34 4 -1.68 4 -1 4 C-0.67 2.68 -0.34 1.36 0 0 Z " fill="#231A6A" transform="translate(247,134)"/>
<path d="M0 0 C1.9453125 -0.29296875 1.9453125 -0.29296875 4.125 -0.1875 C5.40375 -0.125625 6.6825 -0.06375 8 0 C8 0.66 8 1.32 8 2 C8.66 2.33 9.32 2.66 10 3 C11.04808041 4.97522846 12.0520411 6.97481509 13 9 C12.21625 8.79375 11.4325 8.5875 10.625 8.375 C9.75875 8.25125 8.8925 8.1275 8 8 C7.34 8.66 6.68 9.32 6 10 C6.99 10.66 7.98 11.32 9 12 C2.7 12.48461538 2.7 12.48461538 -0.4375 10.3125 C-2.29854288 7.55815654 -2.5015316 6.25995538 -2 3 C-1.34 2.01 -0.68 1.02 0 0 Z " fill="#271974" transform="translate(235,91)"/>
<path d="M0 0 C3.83742934 0.09120033 7.52894004 0.55690667 11.3125 1.1875 C11.3125 4.02717231 10.90982819 6.42485711 10.3125 9.1875 C8.9925 9.1875 7.6725 9.1875 6.3125 9.1875 C6.3125 8.5275 6.3125 7.8675 6.3125 7.1875 C4.87510487 7.16037934 3.43756137 7.14104933 2 7.125 C1.19949219 7.11339844 0.39898437 7.10179687 -0.42578125 7.08984375 C-2.85611334 7.09092145 -2.85611334 7.09092145 -5.6875 8.1875 C-5.8125 5.3125 -5.8125 5.3125 -5.6875 2.1875 C-3.6875 0.1875 -3.6875 0.1875 0 0 Z " fill="#3C3579" transform="translate(339.6875,261.8125)"/>
<path d="M0 0 C0 0.66 0 1.32 0 2 C0.66 2.33 1.32 2.66 2 3 C-1.3 2.67 -4.6 2.34 -8 2 C-8 2.66 -8 3.32 -8 4 C-7.34 4.33 -6.68 4.66 -6 5 C-6.474375 5.45375 -6.94875 5.9075 -7.4375 6.375 C-9.09027808 7.93258204 -9.09027808 7.93258204 -10 10 C-10.66 10 -11.32 10 -12 10 C-12.33 10.66 -12.66 11.32 -13 12 C-14.32 11.67 -15.64 11.34 -17 11 C-17 10.34 -17 9.68 -17 9 C-19.64 8.34 -22.28 7.68 -25 7 C-25 6.67 -25 6.34 -25 6 C-23.453125 5.814375 -23.453125 5.814375 -21.875 5.625 C-18.37883154 5.06110186 -15.31602373 4.21317941 -12 3 C-12.33 2.34 -12.66 1.68 -13 1 C-7.60900283 -1.69549858 -5.99981796 -1.88883158 0 0 Z " fill="#28197E" transform="translate(302,162)"/>
<path d="M0 0 C2.64 0 5.28 0 8 0 C8.91058531 3.07322544 9.08886184 5.80097361 9 9 C5.25 10.125 5.25 10.125 3 9 C2.67 10.32 2.34 11.64 2 13 C0.68 12.34 -0.64 11.68 -2 11 C-1.34 7.37 -0.68 3.74 0 0 Z " fill="#22156D" transform="translate(288,256)"/>
<path d="M0 0 C1.18613892 0.07069702 1.18613892 0.07069702 2.39624023 0.14282227 C3.67724609 0.21533203 3.67724609 0.21533203 4.98413086 0.28930664 C5.88196289 0.34538086 6.77979492 0.40145508 7.70483398 0.45922852 C8.6065332 0.51143555 9.50823242 0.56364258 10.43725586 0.61743164 C12.67259948 0.74753101 14.90754288 0.88250788 17.14233398 1.02172852 C18.50048175 5.09617182 17.08979161 7.83640968 15.70483398 11.70922852 C15.4618457 12.41112305 15.21885742 13.11301758 14.96850586 13.83618164 C14.36783959 15.56751383 13.75613679 17.29500988 13.14233398 19.02172852 C12.48233398 18.36172852 11.82233398 17.70172852 11.14233398 17.02172852 C11.45483398 14.77172852 11.45483398 14.77172852 12.14233398 12.02172852 C12.48178194 10.02275723 12.81655014 8.02297213 13.14233398 6.02172852 C13.80233398 6.02172852 14.46233398 6.02172852 15.14233398 6.02172852 C15.14233398 5.36172852 15.14233398 4.70172852 15.14233398 4.02172852 C7.22233398 4.51672852 7.22233398 4.51672852 -0.85766602 5.02172852 C-1.51766602 3.70172852 -2.17766602 2.38172852 -2.85766602 1.02172852 C-1.85766602 0.02172852 -1.85766602 0.02172852 0 0 Z " fill="#574E92" transform="translate(413.857666015625,111.978271484375)"/>
<path d="M0 0 C1.875 0.1875 1.875 0.1875 4 1 C5.1328125 3.55078125 5.1328125 3.55078125 6 6 C7.2986499 5.99214478 7.2986499 5.99214478 8.62353516 5.98413086 C11.90755917 5.96685113 15.19153327 5.95443638 18.47558594 5.94506836 C19.88347141 5.94011102 21.29135194 5.93334314 22.69921875 5.92456055 C32.18916799 5.866943 41.53817205 6.17606112 51 7 C51 7.33 51 7.66 51 8 C44.34310718 8.02529589 37.6862267 8.04284396 31.02929688 8.05493164 C28.76334164 8.05996926 26.49738967 8.06679952 24.23144531 8.07543945 C20.97980953 8.08752996 17.72821661 8.09323392 14.4765625 8.09765625 C12.94994492 8.10539818 12.94994492 8.10539818 11.39248657 8.11329651 C9.98125015 8.11340981 9.98125015 8.11340981 8.54150391 8.11352539 C7.29574081 8.11685631 7.29574081 8.11685631 6.02481079 8.12025452 C4 8 4 8 2 7 C1.67 6.01 1.34 5.02 1 4 C0.34 3.34 -0.32 2.68 -1 2 C-0.67 1.34 -0.34 0.68 0 0 Z " fill="#5F5493" transform="translate(297,183)"/>
<path d="M0 0 C0.804375 0.4640625 0.804375 0.4640625 1.625 0.9375 C4.3984957 2.17827439 7.00042837 2.5909675 10 3 C9.34 5.31 8.68 7.62 8 10 C-0.57142857 11.42857143 -0.57142857 11.42857143 -4 9 C-4 8.01 -4 7.02 -4 6 C-3.01 6 -2.02 6 -1 6 C-0.67 4.02 -0.34 2.04 0 0 Z " fill="#3B3882" transform="translate(413,282)"/>
<path d="M0 0 C0.66 0 1.32 0 2 0 C2.33 0.99 2.66 1.98 3 3 C3.33 3.66 3.66 4.32 4 5 C3.67 5.99 3.34 6.98 3 8 C4.32 8.33 5.64 8.66 7 9 C4.33333333 9 1.66666667 9 -1 9 C-1.99 9.495 -1.99 9.495 -3 10 C-11.39097744 10.40601504 -11.39097744 10.40601504 -15 8 C-11.25 6 -11.25 6 -9 6 C-8.67 5.01 -8.34 4.02 -8 3 C-5.36 3 -2.72 3 0 3 C0 2.01 0 1.02 0 0 Z " fill="#4C4288" transform="translate(372,283)"/>
<path d="M0 0 C0 0.66 0 1.32 0 2 C1.32 2.66 2.64 3.32 4 4 C2.84826645 6.46800047 1.95216435 8.04783565 0 10 C-0.99 10 -1.98 10 -3 10 C-3 9.34 -3 8.68 -3 8 C-5.31 7.67 -7.62 7.34 -10 7 C-8.68 6.34 -7.36 5.68 -6 5 C-7.98 5 -9.96 5 -12 5 C-12.66 3.68 -13.32 2.36 -14 1 C-12.22932584 0.83165067 -10.45845388 0.66538091 -8.6875 0.5 C-7.70136719 0.4071875 -6.71523438 0.314375 -5.69921875 0.21875 C-3 0 -3 0 0 0 Z " fill="#423587" transform="translate(278,256)"/>
<path d="M0 0 C-0.33 3.63 -0.66 7.26 -1 11 C-1.66 11 -2.32 11 -3 11 C-2.67 12.32 -2.34 13.64 -2 15 C-5.37503669 13.8141763 -7.64722731 12.72426311 -10 10 C-9.71125 9.443125 -9.4225 8.88625 -9.125 8.3125 C-7.91932647 5.98947835 -7.91932647 5.98947835 -7.1875 3.3125 C-6.795625 2.549375 -6.40375 1.78625 -6 1 C-3.87387453 0.32586265 -2.22091319 0 0 0 Z " fill="#2C1D86" transform="translate(268,96)"/>
<path d="M0 0 C5.94 0 11.88 0 18 0 C17.67 0.99 17.34 1.98 17 3 C12.71 3 8.42 3 4 3 C4.33 3.99 4.66 4.98 5 6 C4.0625 8.1875 4.0625 8.1875 3 10 C3 9.34 3 8.68 3 8 C2.01 8 1.02 8 0 8 C-0.33 8.99 -0.66 9.98 -1 11 C-3 4.25 -3 4.25 -3 2 C-2.01 2 -1.02 2 0 2 C0 1.34 0 0.68 0 0 Z " fill="#261970" transform="translate(363,114)"/>
<path d="M0 0 C0 0.66 0 1.32 0 2 C-1.32 2 -2.64 2 -4 2 C-4 2.66 -4 3.32 -4 4 C-4.66 4 -5.32 4 -6 4 C-6 4.66 -6 5.32 -6 6 C-5.34 6.33 -4.68 6.66 -4 7 C-11.47156628 7.2930026 -15.96032027 6.62155786 -22 2 C-19.27123692 1.66304138 -16.54206837 1.33031571 -13.8125 1 C-13.04357422 0.90460938 -12.27464844 0.80921875 -11.48242188 0.7109375 C-7.63071189 0.24807106 -3.88829149 -0.12467468 0 0 Z " fill="#2D2278" transform="translate(278,132)"/>
<path d="M0 0 C0.33 0 0.66 0 1 0 C1 1.65 1 3.3 1 5 C-10.88 5 -22.76 5 -35 5 C-34.67 4.34 -34.34 3.68 -34 3 C-33.04109863 2.98018066 -32.08219727 2.96036133 -31.09423828 2.93994141 C-27.54188447 2.86395855 -23.98994424 2.7752307 -20.43798828 2.68261719 C-18.89965979 2.64429699 -17.36124075 2.60944944 -15.82275391 2.578125 C-13.61327724 2.53253941 -11.40442552 2.4745366 -9.1953125 2.4140625 C-8.16085495 2.39673569 -8.16085495 2.39673569 -7.10549927 2.37905884 C-3.1079846 2.35048978 -3.1079846 2.35048978 0 0 Z " fill="#2B2068" transform="translate(336,176)"/>
<path d="M0 0 C0.53109375 0.14308594 1.0621875 0.28617188 1.609375 0.43359375 C4.47311231 1.1120936 7.34547652 1.58893639 10.25 2.0625 C11.32765625 2.23910156 12.4053125 2.41570312 13.515625 2.59765625 C14.33546875 2.73042969 15.1553125 2.86320313 16 3 C14.73046875 4.51953125 14.73046875 4.51953125 13 6 C9.3125 5.6875 9.3125 5.6875 6 5 C5.67 5.66 5.34 6.32 5 7 C5.99 7.33 6.98 7.66 8 8 C3.25 9.125 3.25 9.125 1 8 C0.67 9.32 0.34 10.64 0 12 C-0.66 11.67 -1.32 11.34 -2 11 C-2.73075648 8.6859378 -3.40138258 6.35171131 -4 4 C-1.03 4.495 -1.03 4.495 2 5 C2 3.68 2 2.36 2 1 C1.34 0.67 0.68 0.34 0 0 Z " fill="#5F56A0" transform="translate(288,175)"/>
<path d="M0 0 C0.66 0.33 1.32 0.66 2 1 C2.5546875 3.80078125 2.5546875 3.80078125 2.875 7.3125 C2.99617188 8.46363281 3.11734375 9.61476563 3.2421875 10.80078125 C3 14 3 14 1.2109375 16.40234375 C-1.65660251 18.47447072 -3.54196072 18.31436721 -7 18 C-7 16.68 -7 15.36 -7 14 C-7.66 13.67 -8.32 13.34 -9 13 C-8.34 12.67 -7.68 12.34 -7 12 C-6.67 11.01 -6.34 10.02 -6 9 C-3 10 -3 10 -1.8125 12.0625 C-1.544375 12.701875 -1.27625 13.34125 -1 14 C-1.0309375 12.205625 -1.0309375 12.205625 -1.0625 10.375 C-1.06882571 6.81995131 -0.69888875 3.49444376 0 0 Z " fill="#342A7C" transform="translate(281,271)"/>
<path d="M0 0 C1.95901454 0.11382653 3.9172338 0.24141125 5.875 0.375 C6.96554687 0.44460937 8.05609375 0.51421875 9.1796875 0.5859375 C12 1 12 1 14 3 C10.7 3.33 7.4 3.66 4 4 C4.33 4.66 4.66 5.32 5 6 C6.423125 5.938125 6.423125 5.938125 7.875 5.875 C11 6 11 6 13 8 C12.21625 8.144375 11.4325 8.28875 10.625 8.4375 C8.03578982 8.87798925 8.03578982 8.87798925 6 10 C5.195625 9.67 4.39125 9.34 3.5625 9 C0.94394094 7.66342113 0.94394094 7.66342113 -2 9 C-2.33 8.01 -2.66 7.02 -3 6 C-2.34 5.67 -1.68 5.34 -1 5 C-1.33 4.01 -1.66 3.02 -2 2 C-1.34 2 -0.68 2 0 2 C0 1.34 0 0.68 0 0 Z " fill="#271D6A" transform="translate(261,254)"/>
<path d="M0 0 C19.14 0 38.28 0 58 0 C58 0.33 58 0.66 58 1 C56.97845825 1.03758423 56.97845825 1.03758423 55.9362793 1.07592773 C52.85316245 1.19190952 49.77034954 1.31462616 46.6875 1.4375 C45.61564453 1.47681641 44.54378906 1.51613281 43.43945312 1.55664062 C41.89741211 1.61948242 41.89741211 1.61948242 40.32421875 1.68359375 C39.37635498 1.72025146 38.42849121 1.75690918 37.4519043 1.79467773 C34.863829 1.91430187 34.863829 1.91430187 32 3 C29.77181559 3.06937062 27.54165476 3.08457084 25.3125 3.0625 C23.54326172 3.04896484 23.54326172 3.04896484 21.73828125 3.03515625 C20.83464844 3.02355469 19.93101562 3.01195312 19 3 C19 2.34 19 1.68 19 1 C12.73 1 6.46 1 0 1 C0 0.67 0 0.34 0 0 Z " fill="#5B5194" transform="translate(338,188)"/>
<path d="M0 0 C0.33 0.66 0.66 1.32 1 2 C-2.34820706 6.42441648 -5.28534672 10.18362096 -11 11 C-15.52013794 11.24655298 -18.95741592 11.14019157 -23 9 C-23.33 8.34 -23.66 7.68 -24 7 C-21.32568069 6.92359088 -18.99964263 7.00007658 -16.375 7.5625 C-13.86351334 8.22276055 -13.86351334 8.22276055 -11 7 C-10.67 6.34 -10.34 5.68 -10 5 C-7.69 5 -5.38 5 -3 5 C-3 4.01 -3 3.02 -3 2 C-2.01 1.34 -1.02 0.68 0 0 Z " fill="#4D4485" transform="translate(318,282)"/>
<path d="M0 0 C0.33 0.66 0.66 1.32 1 2 C1.66 2 2.32 2 3 2 C4.32 7.61 5.64 13.22 7 19 C3.98675805 20.50662097 1.31713623 20.17770373 -2 20 C-2.66 19.34 -3.32 18.68 -4 18 C0.75 15 0.75 15 3 15 C2.505 14.01 2.01 13.02 1.5 12 C-0.30103581 7.86522766 -0.23515871 4.46801547 0 0 Z " fill="#322677" transform="translate(272,109)"/>
<path d="M0 0 C1.2065625 0.0309375 1.2065625 0.0309375 2.4375 0.0625 C2.4375 1.3825 2.4375 2.7025 2.4375 4.0625 C3.0975 4.0625 3.7575 4.0625 4.4375 4.0625 C4.4375 4.7225 4.4375 5.3825 4.4375 6.0625 C2.02075776 6.08955308 -0.3956794 6.10936438 -2.8125 6.125 C-3.83537109 6.13756836 -3.83537109 6.13756836 -4.87890625 6.15039062 C-8.25592554 6.16678392 -11.33541639 6.11878768 -14.5625 5.0625 C-14.5625 4.4025 -14.5625 3.7425 -14.5625 3.0625 C-13.38880859 2.86333984 -13.38880859 2.86333984 -12.19140625 2.66015625 C-11.17949219 2.48355469 -10.16757813 2.30695313 -9.125 2.125 C-8.11566406 1.95097656 -7.10632813 1.77695313 -6.06640625 1.59765625 C-3.18494227 0.98180513 -2.9634087 0.07227826 0 0 Z " fill="#5D588E" transform="translate(260.5625,149.9375)"/>
<path d="M0 0 C0.21192221 5.19209404 -0.4087311 9.126739 -2 14 C-1.34 14.33 -0.68 14.66 0 15 C-0.66 15.33 -1.32 15.66 -2 16 C-2.66 17.32 -3.32 18.64 -4 20 C-4 16.37 -4 12.74 -4 9 C-4.66 9 -5.32 9 -6 9 C-6 6.03 -6 3.06 -6 0 C-3 -1 -3 -1 0 0 Z " fill="#2D1E6A" transform="translate(391,263)"/>
<path d="M0 0 C1.5625 1.75 1.5625 1.75 2 4 C1.37498605 5.68272986 0.69822617 7.34630643 0 9 C-0.46797058 11.98897336 -0.75044193 14.98560123 -1 18 C-1.33 18 -1.66 18 -2 18 C-2.33 14.04 -2.66 10.08 -3 6 C-4.98 5.34 -6.96 4.68 -9 4 C-9 2.68 -9 1.36 -9 0 C-5.81926598 -1.59036701 -3.37573597 -0.78365299 0 0 Z " fill="#231A6B" transform="translate(320,254)"/>
<path d="M0 0 C0.33 0 0.66 0 1 0 C1 2.31 1 4.62 1 7 C-0.65 7.33 -2.3 7.66 -4 8 C-4.0825 8.5775 -4.165 9.155 -4.25 9.75 C-5.20531013 12.6159304 -6.78469173 13.9990764 -9 16 C-10.1875 14.375 -10.1875 14.375 -11 12 C-9.06199021 6.61663948 -9.06199021 6.61663948 -6.0625 4.875 C-5.381875 4.58625 -4.70125 4.2975 -4 4 C-2.64748503 2.68612831 -1.31054623 1.35573748 0 0 Z " fill="#41397D" transform="translate(401,261)"/>
<path d="M0 0 C0.99 0 1.98 0 3 0 C3 1.32 3 2.64 3 4 C-1.36893737 4.84062776 -5.4835198 5.11732956 -9.9296875 5.09765625 C-11.21875 5.09443359 -12.5078125 5.09121094 -13.8359375 5.08789062 C-15.18229236 5.07953733 -16.52864652 5.07107241 -17.875 5.0625 C-19.24479004 5.0574783 -20.61458185 5.05291657 -21.984375 5.04882812 C-25.3229619 5.03707254 -28.66145815 5.02063964 -32 5 C-32 4.67 -32 4.34 -32 4 C-27.88518795 3.24229215 -23.90659766 2.82844645 -19.7265625 2.68359375 C-17.99599609 2.62075195 -17.99599609 2.62075195 -16.23046875 2.55664062 C-14.44576172 2.49766602 -14.44576172 2.49766602 -12.625 2.4375 C-10.80548828 2.37272461 -10.80548828 2.37272461 -8.94921875 2.30664062 C-5.96624968 2.20094487 -2.98320258 2.09884679 0 2 C0 1.34 0 0.68 0 0 Z " fill="#5D548F" transform="translate(399,196)"/>
<path d="M0 0 C0.66 0 1.32 0 2 0 C1.67 1.32 1.34 2.64 1 4 C2.32 3.67 3.64 3.34 5 3 C6.32 4.65 7.64 6.3 9 8 C8.21625 8.103125 7.4325 8.20625 6.625 8.3125 C3.66954819 8.77595022 3.66954819 8.77595022 2 12 C0.68 11.34 -0.64 10.68 -2 10 C-2 9.01 -2 8.02 -2 7 C-2.66 6.67 -3.32 6.34 -4 6 C-3.01 6 -2.02 6 -1 6 C-0.67 4.02 -0.34 2.04 0 0 Z " fill="#403488" transform="translate(292,277)"/>
<path d="M0 0 C11.22 0 22.44 0 34 0 C34 0.66 34 1.32 34 2 C25.42 2.33 16.84 2.66 8 3 C8 2.34 8 1.68 8 1 C5.36 1 2.72 1 0 1 C0 0.67 0 0.34 0 0 Z " fill="#261A6C" transform="translate(312,114)"/>
<path d="M0 0 C0.82638376 2.89234315 1 4.88742431 1 8 C1.61875 7.505 2.2375 7.01 2.875 6.5 C5 5 5 5 7 5 C7.33 4.34 7.66 3.68 8 3 C8.66 3.33 9.32 3.66 10 4 C9.67 5.65 9.34 7.3 9 9 C7.68 9 6.36 9 5 9 C4.67 10.32 4.34 11.64 4 13 C4 12.34 4 11.68 4 11 C3.01 11 2.02 11 1 11 C1 11.66 1 12.32 1 13 C0.34 13 -0.32 13 -1 13 C-1.02686553 11.02090602 -1.04633375 9.04171029 -1.0625 7.0625 C-1.07410156 5.96035156 -1.08570313 4.85820312 -1.09765625 3.72265625 C-1 1 -1 1 0 0 Z " fill="#291E72" transform="translate(250,262)"/>
<path d="M0 0 C2.64 0 5.28 0 8 0 C8 0.66 8 1.32 8 2 C7.34 2 6.68 2 6 2 C4.68373308 5.61973402 4 8.09567131 4 12 C3.01 12 2.02 12 1 12 C-2.2 5.72307692 -2.2 5.72307692 -1.1875 2.0625 C-0.795625 1.381875 -0.40375 0.70125 0 0 Z " fill="#2A1C74" transform="translate(289,183)"/>
<path d="M0 0 C0.66 0 1.32 0 2 0 C2.33 1.32 2.66 2.64 3 4 C2.34 4 1.68 4 1 4 C1.66 4.66 2.32 5.32 3 6 C3.99 6 4.98 6 6 6 C6 6.66 6 7.32 6 8 C9.3 8 12.6 8 16 8 C15.67 8.66 15.34 9.32 15 10 C11.06844428 11.00725808 7.20476676 11.27381063 3.25 10.375 C0.38370721 8.62337663 -1.73185571 6.46255666 -4 4 C-2.68 4 -1.36 4 0 4 C0 2.68 0 1.36 0 0 Z " fill="#5B5395" transform="translate(331,282)"/>
<path d="M0 0 C1.65 0 3.3 0 5 0 C5.33 1.65 5.66 3.3 6 5 C5.34 5 4.68 5 4 5 C3.67 6.98 3.34 8.96 3 11 C1.68 11 0.36 11 -1 11 C-1.0270043 9.54176788 -1.04639787 8.08339325 -1.0625 6.625 C-1.07410156 5.81289063 -1.08570313 5.00078125 -1.09765625 4.1640625 C-1 2 -1 2 0 0 Z " fill="#1A116F" transform="translate(409,277)"/>
<path d="M0 0 C0.66 0 1.32 0 2 0 C2 0.99 2 1.98 2 3 C2.66 3 3.32 3 4 3 C4 2.34 4 1.68 4 1 C4.99 1.33 5.98 1.66 7 2 C6.67 5.3 6.34 8.6 6 12 C4.68 12 3.36 12 2 12 C1.855625 11.38125 1.71125 10.7625 1.5625 10.125 C1.06847775 7.96741678 1.06847775 7.96741678 0 6 C0.33 5.34 0.66 4.68 1 4 C0.34 4 -0.32 4 -1 4 C-0.67 2.68 -0.34 1.36 0 0 Z " fill="#161064" transform="translate(373,279)"/>
<path d="M0 0 C0.99 0 1.98 0 3 0 C3.66 0.66 4.32 1.32 5 2 C8.46712111 3.15570704 11.5414956 3.32835293 15.1875 3.5625 C17.09595703 3.68818359 17.09595703 3.68818359 19.04296875 3.81640625 C20.01878906 3.87699219 20.99460937 3.93757813 22 4 C22 4.66 22 5.32 22 6 C16.88297707 7.70567431 12.25554134 7.89595114 7.1875 5.8828125 C4.74586816 4.65506013 2.35909998 3.3790146 0 2 C0 1.34 0 0.68 0 0 Z " fill="#5B548F" transform="translate(253,286)"/>
<path d="M0 0 C2.27024968 -0.08097324 4.54132075 -0.13917704 6.8125 -0.1875 C8.07707031 -0.22230469 9.34164063 -0.25710937 10.64453125 -0.29296875 C14 0 14 0 15.94921875 1.26171875 C17 3 17 3 17 7 C18.11375 6.938125 19.2275 6.87625 20.375 6.8125 C22.169375 6.9053125 22.169375 6.9053125 24 7 C24.99 8.485 24.99 8.485 26 10 C22.57544008 9.98714987 19.32879515 9.84157945 16 9 C13.96609359 6.1884235 13 4.47628604 13 1 C8.71 1 4.42 1 0 1 C0 0.67 0 0.34 0 0 Z " fill="#8881B1" transform="translate(265,156)"/>
<path d="M0 0 C6.93 0.495 6.93 0.495 14 1 C13.34 2.32 12.68 3.64 12 5 C7.03558604 6.33657299 3.71532873 5.9551363 -1 4 C-0.67 2.68 -0.34 1.36 0 0 Z " fill="#261B72" transform="translate(295,285)"/>
<path d="M0 0 C0.33 0 0.66 0 1 0 C2.6290678 4.79137588 3.20577428 8.05632546 2 13 C0.35 13 -1.3 13 -3 13 C-3.66 11.02 -4.32 9.04 -5 7 C-4.34 7 -3.68 7 -3 7 C-3 6.34 -3 5.68 -3 5 C-2.01 5 -1.02 5 0 5 C0 3.35 0 1.7 0 0 Z " fill="#3A3175" transform="translate(390,279)"/>
<path d="M0 0 C3.63 0 7.26 0 11 0 C11 0.66 11 1.32 11 2 C12.32 2.66 13.64 3.32 15 4 C11.4513865 6.36574234 10.4235475 6.10865265 6.3125 5.625 C4.82169922 5.45871094 4.82169922 5.45871094 3.30078125 5.2890625 C2.54152344 5.19367188 1.78226562 5.09828125 1 5 C1 4.01 1 3.02 1 2 C0.67 1.34 0.34 0.68 0 0 Z " fill="#302577" transform="translate(263,285)"/>
<path d="M0 0 C2.64 0.33 5.28 0.66 8 1 C8.66 4.3 9.32 7.6 10 11 C8.35 11 6.7 11 5 11 C4.67 11.66 4.34 12.32 4 13 C4 9.37 4 5.74 4 2 C2.68 2 1.36 2 0 2 C0 1.34 0 0.68 0 0 Z " fill="#3B307F" transform="translate(404,266)"/>
<path d="M0 0 C0.66 0.33 1.32 0.66 2 1 C2.33333333 2.33333333 2.66666667 3.66666667 3 5 C3.66 5.33 4.32 5.66 5 6 C3.625 8 3.625 8 2 10 C1.34 10 0.68 10 0 10 C-0.33 9.34 -0.66 8.68 -1 8 C-3.52733235 7.34444881 -3.52733235 7.34444881 -6 7 C-5.67 6.01 -5.34 5.02 -5 4 C-4.01 4 -3.02 4 -2 4 C-1.34 2.68 -0.68 1.36 0 0 Z " fill="#2B1B86" transform="translate(287,196)"/>
<path d="M0 0 C3.057952 1.73559438 5.63379989 3.38472619 8 6 C3.68413875 8.16205669 0.44756775 8.06986614 -4.3125 7.625 C-5.56675781 7.51414063 -6.82101562 7.40328125 -8.11328125 7.2890625 C-9.06589844 7.19367188 -10.01851563 7.09828125 -11 7 C-11 6.67 -11 6.34 -11 6 C-10.37351562 5.90203125 -9.74703125 5.8040625 -9.1015625 5.703125 C-7.87566406 5.47882813 -7.87566406 5.47882813 -6.625 5.25 C-5.81289063 5.11078125 -5.00078125 4.9715625 -4.1640625 4.828125 C-1.82290908 4.18250739 -1.82290908 4.18250739 -0.7109375 1.921875 C-0.47632813 1.28765625 -0.24171875 0.6534375 0 0 Z " fill="#615799" transform="translate(289,125)"/>
<path d="M0 0 C0.99 0.66 1.98 1.32 3 2 C2.175 2.61875 1.35 3.2375 0.5 3.875 C-0.7375 4.926875 -0.7375 4.926875 -2 6 C-2 6.66 -2 7.32 -2 8 C0.97 8.495 0.97 8.495 4 9 C4.33 9.99 4.66 10.98 5 12 C-0.28798182 11.58525633 -3.11690718 10.64775386 -7 7 C-6.875 5.1875 -6.875 5.1875 -6 3 C-2.9375 1.25 -2.9375 1.25 0 0 Z " fill="#23176D" transform="translate(297,119)"/>
<path d="M0 0 C2.12472576 -0.05386629 4.24983652 -0.09273071 6.375 -0.125 C7.55835938 -0.14820313 8.74171875 -0.17140625 9.9609375 -0.1953125 C13 0 13 0 15 2 C14.67 2.99 14.34 3.98 14 5 C10.04 4.67 6.08 4.34 2 4 C2 3.34 2 2.68 2 2 C1.34 1.34 0.68 0.68 0 0 Z " fill="#3C2F82" transform="translate(264,150)"/>
<path d="M0 0 C6.6 0 13.2 0 20 0 C20 0.33 20 0.66 20 1 C19.35933594 1.06058594 18.71867187 1.12117187 18.05859375 1.18359375 C15.37106313 1.44393576 12.68544209 1.71896536 10 2 C9.278125 2.0721875 8.55625 2.144375 7.8125 2.21875 C6.1982816 2.40707548 4.59616613 2.69435117 3 3 C2.67 3.66 2.34 4.32 2 5 C-0.5625 5.625 -0.5625 5.625 -3 6 C-2.01 4.02 -1.02 2.04 0 0 Z " fill="#4D417E" transform="translate(316,141)"/>
<path d="M0 0 C0.66 0.66 1.32 1.32 2 2 C1.625 5.625 1.625 5.625 1 9 C-0.65 9.66 -2.3 10.32 -4 11 C-4 7.7 -4 4.4 -4 1 C-2.68 0.67 -1.36 0.34 0 0 Z " fill="#2B1E78" transform="translate(378,121)"/>
<path d="M0 0 C0 2 0 2 -2.1875 4.5 C-6.55493608 8.38216541 -10.02896115 9.26436238 -15.8125 9.125 C-17.27623047 9.09792969 -17.27623047 9.09792969 -18.76953125 9.0703125 C-19.50558594 9.04710937 -20.24164063 9.02390625 -21 9 C-21 8.34 -21 7.68 -21 7 C-20.02160156 7.10441406 -20.02160156 7.10441406 -19.0234375 7.2109375 C-13.79128196 7.64824086 -13.79128196 7.64824086 -9.10546875 5.69921875 C-7.67867253 4.18573111 -6.33478189 2.59522713 -5 1 C-2 0 -2 0 0 0 Z " fill="#5F5792" transform="translate(378,206)"/>
<path d="M0 0 C-0.33 0.66 -0.66 1.32 -1 2 C-3.64 2 -6.28 2 -9 2 C-8.67 3.98 -8.34 5.96 -8 8 C-10.31 8 -12.62 8 -15 8 C-14.01 7.34 -13.02 6.68 -12 6 C-12.66868314 2.88667752 -12.66868314 2.88667752 -15.0625 1.8125 C-15.701875 1.544375 -16.34125 1.27625 -17 1 C-11.29309366 0.00749455 -5.78591511 -0.10477512 0 0 Z " fill="#645B9A" transform="translate(285,166)"/>
<path d="M0 0 C2.64 0 5.28 0 8 0 C8.33 1.65 8.66 3.3 9 5 C7.0085944 5.38133299 5.00720923 5.71325582 3 6 C2.67 5.67 2.34 5.34 2 5 C1.34 5.66 0.68 6.32 0 7 C0 4.69 0 2.38 0 0 Z " fill="#423886" transform="translate(288,256)"/>
<path d="M0 0 C0.66 0.66 1.32 1.32 2 2 C3.9931567 2.02375926 3.9931567 2.02375926 6.125 1.625 C7.40375 1.41875 8.6825 1.2125 10 1 C10 1.66 10 2.32 10 3 C11.32 3.33 12.64 3.66 14 4 C14 4.33 14 4.66 14 5 C8.555 5.495 8.555 5.495 3 6 C3 5.34 3 4.68 3 4 C1.68 4.33 0.36 4.66 -1 5 C-1.33 4.01 -1.66 3.02 -2 2 C-1.34 1.34 -0.68 0.68 0 0 Z " fill="#1F1865" transform="translate(357,273)"/>
<path d="M0 0 C0.66 0 1.32 0 2 0 C2.33 0.99 2.66 1.98 3 3 C3.33 3.66 3.66 4.32 4 5 C3.67 5.99 3.34 6.98 3 8 C4.32 8.33 5.64 8.66 7 9 C3.95613276 9.08226668 1.92824652 8.97608217 -1 8 C-1 7.34 -1 6.68 -1 6 C-3.64 5.67 -6.28 5.34 -9 5 C-8.67 4.34 -8.34 3.68 -8 3 C-5.36 3 -2.72 3 0 3 C0 2.01 0 1.02 0 0 Z " fill="#6D61A1" transform="translate(372,283)"/>
<path d="M0 0 C0.66 0 1.32 0 2 0 C1.96744792 1.98567708 1.93489583 3.97135417 1.90234375 5.95703125 C1.91736783 8.20305461 1.91736783 8.20305461 3 11 C0.03 10.505 0.03 10.505 -3 10 C-3.12375 9.195625 -3.2475 8.39125 -3.375 7.5625 C-3.684375 6.2940625 -3.684375 6.2940625 -4 5 C-4.66 4.67 -5.32 4.34 -6 4 C-4.35 4 -2.7 4 -1 4 C-0.67 2.68 -0.34 1.36 0 0 Z " fill="#251568" transform="translate(406,256)"/>
<path d="M0 0 C2.64 0.33 5.28 0.66 8 1 C8 1.66 8 2.32 8 3 C9.32 3.33 10.64 3.66 12 4 C10.82421875 6.015625 10.82421875 6.015625 9 8 C6.51953125 8.171875 6.51953125 8.171875 3.8125 7.75 C2.91144531 7.62109375 2.01039063 7.4921875 1.08203125 7.359375 C0.39496094 7.24078125 -0.29210937 7.1221875 -1 7 C-1 6.67 -1 6.34 -1 6 C3.455 5.505 3.455 5.505 8 5 C7.01 4.67 6.02 4.34 5 4 C5 3.34 5 2.68 5 2 C3.68 2 2.36 2 1 2 C0.67 2.66 0.34 3.32 0 4 C-1.32 4 -2.64 4 -4 4 C-4 3.34 -4 2.68 -4 2 C-2.68 2 -1.36 2 0 2 C0 1.34 0 0.68 0 0 Z " fill="#675E9C" transform="translate(362,272)"/>
<path d="M0 0 C1.4783226 2.95664519 1.06032783 5.74229737 1 9 C-1.375 8.8125 -1.375 8.8125 -4 8 C-5.3125 5.4375 -5.3125 5.4375 -6 3 C-3.8614515 0.8614515 -2.86724686 0.57344937 0 0 Z " fill="#191267" transform="translate(334,262)"/>
<path d="M0 0 C0.66 0.33 1.32 0.66 2 1 C2.02690844 3.62506802 2.04679404 6.24986173 2.0625 8.875 C2.07087891 9.62136719 2.07925781 10.36773437 2.08789062 11.13671875 C2.11328125 16.7734375 2.11328125 16.7734375 1 19 C0.34 19 -0.32 19 -1 19 C-1.02683987 16.02077407 -1.04676037 13.04178705 -1.0625 10.0625 C-1.07087891 9.21236328 -1.07925781 8.36222656 -1.08789062 7.48632812 C-1.09111328 6.67744141 -1.09433594 5.86855469 -1.09765625 5.03515625 C-1.10289307 4.2862915 -1.10812988 3.53742676 -1.11352539 2.76586914 C-1 1 -1 1 0 0 Z " fill="#271E64" transform="translate(312,257)"/>
<path d="M0 0 C0.97608217 2.92824652 1.08226668 4.95613276 1 8 C1.99 8.33 2.98 8.66 4 9 C5.1875 11.0625 5.1875 11.0625 6 13 C0.70499087 11.63842622 -1.23745533 8.39656045 -4 4 C-2.68 2.68 -1.36 1.36 0 0 Z " fill="#574E92" transform="translate(285,212)"/>
<path d="M0 0 C0.33 0 0.66 0 1 0 C1.04898437 0.68964844 1.09796875 1.37929687 1.1484375 2.08984375 C1.63728051 8.23409469 2.52825599 14.0149077 4 20 C3.34 20 2.68 20 2 20 C-0.94235671 13.2570992 -2.38661296 7.15983887 0 0 Z " fill="#705E9D" transform="translate(350,152)"/>
<path d="M0 0 C-0.33 0.66 -0.66 1.32 -1 2 C-1.66 2 -2.32 2 -3 2 C-3 2.99 -3 3.98 -3 5 C-5.64 5 -8.28 5 -11 5 C-10.375 2.5625 -10.375 2.5625 -9 0 C-5.40643641 -1.0704232 -3.5731613 -1.19105377 0 0 Z " fill="#1B156E" transform="translate(374,262)"/>
<path d="M0 0 C0.99 0 1.98 0 3 0 C5 2 5 2 5.375 4.375 C4.89262388 7.75163282 3.55541504 8.84386856 1 11 C-0.28317892 7.15046324 -0.06643637 4.05261865 0 0 Z " fill="#302572" transform="translate(390,216)"/>
<path d="M0 0 C-0.99 0.33 -1.98 0.66 -3 1 C-3.73323796 3.01508358 -3.73323796 3.01508358 -4 5 C-4.99 5 -5.98 5 -7 5 C-7 4.34 -7 3.68 -7 3 C-8.65 2.67 -10.3 2.34 -12 2 C-12 1.34 -12 0.68 -12 0 C-7.74433453 -1.16063604 -4.3164922 -0.76173392 0 0 Z " fill="#1A1659" transform="translate(363,264)"/>
<path d="M0 0 C5.99770434 0.80738328 11.28013373 2.05004559 17 4 C17 4.33 17 4.66 17 5 C12.71 5 8.42 5 4 5 C4 4.34 4 3.68 4 3 C3.34 3 2.68 3 2 3 C2 2.34 2 1.68 2 1 C1.34 0.67 0.68 0.34 0 0 Z " fill="#211762" transform="translate(261,151)"/>
<path d="M0 0 C0.33 0 0.66 0 1 0 C1.33 5.61 1.66 11.22 2 17 C0.68 17 -0.64 17 -2 17 C-2.625 14.6875 -2.625 14.6875 -3 12 C-2.34 11.01 -1.68 10.02 -1 9 C-0.54605448 6.72087062 -0.54605448 6.72087062 -0.375 4.3125 C-0.30023438 3.50425781 -0.22546875 2.69601562 -0.1484375 1.86328125 C-0.09945313 1.24839844 -0.05046875 0.63351562 0 0 Z " fill="#5B5290" transform="translate(319,263)"/>
<path d="M0 0 C0.99 0 1.98 0 3 0 C3 3.63 3 7.26 3 11 C2.34 10.01 1.68 9.02 1 8 C0.34 8.66 -0.32 9.32 -1 10 C-1.66 9.67 -2.32 9.34 -3 9 C-2.5020163 5.26512223 -2.12508244 3.18762365 0 0 Z " fill="#55499A" transform="translate(293,266)"/>
<path d="M0 0 C0.33 0 0.66 0 1 0 C1.125 6.625 1.125 6.625 0 10 C-0.99 10.33 -1.98 10.66 -3 11 C-4.125 4.375 -4.125 4.375 -3 1 C-2.01 1.33 -1.02 1.66 0 2 C0 1.34 0 0.68 0 0 Z " fill="#281C72" transform="translate(342,157)"/>
<path d="M0 0 C0.33 0 0.66 0 1 0 C1.05429959 1.74965358 1.09292823 3.49979787 1.125 5.25 C1.14820313 6.22453125 1.17140625 7.1990625 1.1953125 8.203125 C0.99862781 11.0196498 0.44568916 12.60949036 -1 15 C-1.99 15 -2.98 15 -4 15 C-3.34728444 11.48294042 -2.48606976 8.10674923 -1.4375 4.6875 C-1.16808594 3.80449219 -0.89867187 2.92148438 -0.62109375 2.01171875 C-0.41613281 1.34785156 -0.21117187 0.68398437 0 0 Z " fill="#544E8F" transform="translate(408,125)"/>
<path d="M0 0 C1.90608098 3.21182149 2.22266247 5.53882603 2.125 9.25 C2.10695313 10.14203125 2.08890625 11.0340625 2.0703125 11.953125 C2.03550781 12.96632813 2.03550781 12.96632813 2 14 C-0.0625 12.5625 -0.0625 12.5625 -2 10 C-2.10781211 6.91657367 -1.71177387 3.99918391 -1 1 C-0.67 0.67 -0.34 0.34 0 0 Z " fill="#261B77" transform="translate(279,273)"/>
<path d="M0 0 C0.66 0.33 1.32 0.66 2 1 C2.44921875 3.87109375 2.44921875 3.87109375 2.6875 7.4375 C2.77386719 8.61183594 2.86023438 9.78617187 2.94921875 10.99609375 C3 14 3 14 2 16 C1.34 16 0.68 16 0 16 C-0.82622671 10.39436958 -1.06795656 5.57710648 0 0 Z " fill="#79739A" transform="translate(281,271)"/>
<path d="M0 0 C4.40095836 -0.16926763 7.12714373 -0.00320152 11 2 C13.19747131 1.70194993 13.19747131 1.70194993 15 1 C14.67 1.99 14.34 2.98 14 4 C8.80790596 4.21192221 4.873261 3.5912689 0 2 C0 1.34 0 0.68 0 0 Z " fill="#726D97" transform="translate(254,169)"/>
<path d="M0 0 C0.33 0.66 0.66 1.32 1 2 C1.66 2 2.32 2 3 2 C3.66 6.29 4.32 10.58 5 15 C2.11972687 12.11972687 0.40729883 8.81356108 -1 5 C-0.75 2 -0.75 2 0 0 Z " fill="#352D6F" transform="translate(260,112)"/>
<path d="M0 0 C0 1.98 0 3.96 0 6 C-1.98 6 -3.96 6 -6 6 C-6 4.02 -6 2.04 -6 0 C-3 -1 -3 -1 0 0 Z " fill="#251A5F" transform="translate(391,263)"/>
<path d="M0 0 C2.62527189 -0.05382106 5.24944713 -0.09358313 7.875 -0.125 C8.62136719 -0.14175781 9.36773437 -0.15851563 10.13671875 -0.17578125 C12.09194461 -0.1933959 14.04742021 -0.10320189 16 0 C16.66 0.66 17.32 1.32 18 2 C11.60884324 3.24705498 5.9979037 3.90807452 0 1 C0 0.67 0 0.34 0 0 Z " fill="#2D226D" transform="translate(305,165)"/>
<path d="M0 0 C0.33 1.32 0.66 2.64 1 4 C0.34 4 -0.32 4 -1 4 C-1 4.66 -1 5.32 -1 6 C-2.98 6 -4.96 6 -7 6 C-6.67 5.34 -6.34 4.68 -6 4 C-8.97 3.505 -8.97 3.505 -12 3 C-12 2.67 -12 2.34 -12 2 C-8.04 1.34 -4.08 0.68 0 0 Z " fill="#615D92" transform="translate(245,134)"/>
<path d="M0 0 C2.18975773 3.28463659 2.99806563 6.20696275 4 10 C1.69 10 -0.62 10 -3 10 C-3 9.34 -3 8.68 -3 8 C-2.34 8 -1.68 8 -1 8 C-0.67 5.36 -0.34 2.72 0 0 Z " fill="#3F3484" transform="translate(268,99)"/>
<path d="M0 0 C3.50378937 -0.10010827 6.57780506 0.27953791 10 1 C10.99 1 11.98 1 13 1 C13 1.99 13 2.98 13 4 C8.4932782 4.17673419 5.03374456 4.13551182 1 2 C0.67 1.34 0.34 0.68 0 0 Z " fill="#5E588D" transform="translate(294,289)"/>
<path d="M0 0 C0.66 0 1.32 0 2 0 C2.22354607 1.89409978 2.42819951 3.7904348 2.625 5.6875 C2.74101562 6.74324219 2.85703125 7.79898437 2.9765625 8.88671875 C3.0010326 12.13716346 2.40852563 14.10230796 1 17 C0.67 17 0.34 17 0 17 C0 11.39 0 5.78 0 0 Z " fill="#6F6292" transform="translate(379,274)"/>
<path d="M0 0 C0.99 0 1.98 0 3 0 C3 0.66 3 1.32 3 2 C4.32 2.66 5.64 3.32 7 4 C5.25 7.875 5.25 7.875 3 9 C3 7.35 3 5.7 3 4 C0.525 3.01 0.525 3.01 -2 2 C-1.34 1.34 -0.68 0.68 0 0 Z " fill="#71699E" transform="translate(275,256)"/>
<path d="M0 0 C3.5 0.125 3.5 0.125 7 1 C8.4375 3.0625 8.4375 3.0625 9 5 C8.01 6.485 8.01 6.485 7 8 C6.67 6.68 6.34 5.36 6 4 C3.36 3.34 0.72 2.68 -2 2 C-1.34 1.34 -0.68 0.68 0 0 Z " fill="#08047A" transform="translate(313,253)"/>
<path d="M0 0 C0.33 0 0.66 0 1 0 C1.12117188 0.90363281 1.24234375 1.80726563 1.3671875 2.73828125 C1.53476562 3.91777344 1.70234375 5.09726563 1.875 6.3125 C2.03742188 7.48425781 2.19984375 8.65601563 2.3671875 9.86328125 C2.82300621 13.14530895 2.82300621 13.14530895 5 16 C0.125 15.125 0.125 15.125 -1 14 C-0.90968426 11.64305046 -0.75311872 9.28846418 -0.5625 6.9375 C-0.46066406 5.64714844 -0.35882813 4.35679687 -0.25390625 3.02734375 C-0.17011719 2.02832031 -0.08632813 1.02929688 0 0 Z " fill="#675E9C" transform="translate(296,146)"/>
<path d="M0 0 C0.33 0 0.66 0 1 0 C1.33 2.31 1.66 4.62 2 7 C2.99 7 3.98 7 5 7 C4.67 8.65 4.34 10.3 4 12 C3.01 12 2.02 12 1 12 C1 12.66 1 13.32 1 14 C0.01 13.67 -0.98 13.34 -2 13 C-1.67 12.34 -1.34 11.68 -1 11 C-0.7724985 9.12943209 -0.59037189 7.25314042 -0.4375 5.375 C-0.35371094 4.37210937 -0.26992188 3.36921875 -0.18359375 2.3359375 C-0.12300781 1.56507813 -0.06242187 0.79421875 0 0 Z " fill="#7572AD" transform="translate(386,272)"/>
<path d="M0 0 C3.63 0 7.26 0 11 0 C10.67 1.32 10.34 2.64 10 4 C8.33333333 4 6.66666667 4 5 4 C5 3.34 5 2.68 5 2 C3.02 2 1.04 2 -1 2 C-0.67 1.34 -0.34 0.68 0 0 Z " fill="#221966" transform="translate(270,271)"/>
<path d="M0 0 C2 1.8125 2 1.8125 4 4 C4 4.99 4 5.98 4 7 C3.34 7.66 2.68 8.32 2 9 C1.67 8.34 1.34 7.68 1 7 C-0.98 7.99 -0.98 7.99 -3 9 C-2.01 6.03 -1.02 3.06 0 0 Z " fill="#574690" transform="translate(328,266)"/>
<path d="M0 0 C2.97 0.495 2.97 0.495 6 1 C6.33 1.99 6.66 2.98 7 4 C6.34 4 5.68 4 5 4 C4.67 5.32 4.34 6.64 4 8 C3.34 7.67 2.68 7.34 2 7 C1.26924352 4.6859378 0.59861742 2.35171131 0 0 Z " fill="#4F4787" transform="translate(284,179)"/>
<path d="M0 0 C0.763125 0.20625 1.52625 0.4125 2.3125 0.625 C1.3225 1.12 1.3225 1.12 0.3125 1.625 C-0.0175 2.615 -0.3475 3.605 -0.6875 4.625 C-3.75 5.8125 -3.75 5.8125 -6.6875 6.625 C-6.375 4.25 -6.375 4.25 -5.6875 1.625 C-2.6875 -0.375 -2.6875 -0.375 0 0 Z " fill="#2D1E79" transform="translate(318.6875,145.375)"/>
<path d="M0 0 C0.33 0 0.66 0 1 0 C1.13277344 0.81984375 1.26554688 1.6396875 1.40234375 2.484375 C1.57894531 3.56203125 1.75554687 4.6396875 1.9375 5.75 C2.11152344 6.81734375 2.28554687 7.8846875 2.46484375 8.984375 C2.88704171 11.36347593 3.37202884 13.66915211 4 16 C3.01 16.66 2.02 17.32 1 18 C0.04380267 14.00204108 -0.1039592 10.29196078 -0.0625 6.1875 C-0.05347656 5.02605469 -0.04445312 3.86460937 -0.03515625 2.66796875 C-0.02355469 1.78753906 -0.01195312 0.90710938 0 0 Z " fill="#7465A2" transform="translate(248,266)"/>
<path d="M0 0 C0.33 0 0.66 0 1 0 C1.02696365 1.79158489 1.04637917 3.58328473 1.0625 5.375 C1.07410156 6.37273437 1.08570313 7.37046875 1.09765625 8.3984375 C1 11 1 11 0 13 C-0.99 13 -1.98 13 -3 13 C-2.343621 8.51474352 -1.29925791 4.33085971 0 0 Z " fill="#534889" transform="translate(355,136)"/>
<path d="M0 0 C0.99 0.33 1.98 0.66 3 1 C-1.74144487 7.04942966 -1.74144487 7.04942966 -4 9 C-4.66 9 -5.32 9 -6 9 C-5.12467243 5.71752159 -4.49145848 3.49145848 -2.0625 1.0625 C-1.381875 0.711875 -0.70125 0.36125 0 0 Z " fill="#45378E" transform="translate(316,149)"/>
<path d="M0 0 C0.33 0.66 0.66 1.32 1 2 C1.66 2 2.32 2 3 2 C3.33 5.3 3.66 8.6 4 12 C3.34 12 2.68 12 2 12 C-0.60018816 8.09971775 -0.15085514 4.52565431 0 0 Z " fill="#4D4880" transform="translate(272,109)"/>
<path d="M0 0 C0.66 0.66 1.32 1.32 2 2 C2.66 1.67 3.32 1.34 4 1 C4 3.31 4 5.62 4 8 C2.68 8 1.36 8 0 8 C0 5.36 0 2.72 0 0 Z " fill="#2B207C" transform="translate(408,280)"/>
<path d="M0 0 C0.66 0.33 1.32 0.66 2 1 C0.70700306 3.88437779 -0.65941363 5.87219421 -3 8 C-3.99 7.34 -4.98 6.68 -6 6 C-5.67 5.34 -5.34 4.68 -5 4 C-4.01 4 -3.02 4 -2 4 C-1.34 2.68 -0.68 1.36 0 0 Z " fill="#23186C" transform="translate(287,196)"/>
<path d="M0 0 C1.8871875 0.0309375 1.8871875 0.0309375 3.8125 0.0625 C2.10421079 2.16883718 1.29101584 3.00051608 -1.44921875 3.35546875 C-2.24972656 3.32066406 -3.05023438 3.28585938 -3.875 3.25 C-5.08736328 3.20939453 -5.08736328 3.20939453 -6.32421875 3.16796875 C-7.24654297 3.11576172 -7.24654297 3.11576172 -8.1875 3.0625 C-6.45706736 -0.39836529 -3.47359009 -0.0569441 0 0 Z " fill="#242056" transform="translate(237.1875,136.9375)"/>
<path d="M0 0 C2 1.1875 2 1.1875 4 3 C4.25 5.6875 4.25 5.6875 4 8 C2.68 8 1.36 8 0 8 C0 5.36 0 2.72 0 0 Z " fill="#241A68" transform="translate(375,283)"/>
<path d="M0 0 C0.66 0 1.32 0 2 0 C2.66 1.32 3.32 2.64 4 4 C2.68 5.32 1.36 6.64 0 8 C-1.125 6.25 -1.125 6.25 -2 4 C-1.125 1.75 -1.125 1.75 0 0 Z " fill="#17106E" transform="translate(392,269)"/>
<path d="M0 0 C0.33 0.99 0.66 1.98 1 3 C-0.65 4.65 -2.3 6.3 -4 8 C-4.99 7.67 -5.98 7.34 -7 7 C-6.34 7 -5.68 7 -5 7 C-3.98888907 3.95086772 -3.98888907 3.95086772 -5 1 C-3.35 0.67 -1.7 0.34 0 0 Z " fill="#5B5696" transform="translate(364,262)"/>
<path d="M0 0 C0.66 0.33 1.32 0.66 2 1 C2 2.65 2 4.3 2 6 C3.65 6.33 5.3 6.66 7 7 C6.67 7.66 6.34 8.32 6 9 C5.21625 8.79375 4.4325 8.5875 3.625 8.375 C2.75875 8.25125 1.8925 8.1275 1 8 C0.34 8.66 -0.32 9.32 -1 10 C-2.46726798 6.18510326 -1.43336419 3.70988378 0 0 Z " fill="#5D539F" transform="translate(375,217)"/>
<path d="M0 0 C1.875 0.125 1.875 0.125 4 1 C5.25 4.0625 5.25 4.0625 6 7 C4.68 7 3.36 7 2 7 C1.67 6.01 1.34 5.02 1 4 C0.34 3.34 -0.32 2.68 -1 2 C-0.67 1.34 -0.34 0.68 0 0 Z " fill="#564B8E" transform="translate(297,183)"/>
<path d="M0 0 C5.19209404 -0.21192221 9.126739 0.4087311 14 2 C14 2.66 14 3.32 14 4 C12.41532272 3.71572583 10.8322943 3.42225182 9.25 3.125 C7.92742187 2.88136719 7.92742187 2.88136719 6.578125 2.6328125 C4.13052256 2.03203736 2.19400143 1.22002883 0 0 Z " fill="#635D93" transform="translate(239,103)"/>
<path d="M0 0 C5.4185766 -0.22577402 9.77487721 0.53329887 15 2 C12 4 12 4 8.8125 3.625 C7.884375 3.41875 6.95625 3.2125 6 3 C6 2.34 6 1.68 6 1 C4.02 1.33 2.04 1.66 0 2 C0 1.34 0 0.68 0 0 Z " fill="#5C568D" transform="translate(237,90)"/>
<path d="M0 0 C1.5 1.375 1.5 1.375 3 3 C3 3.66 3 4.32 3 5 C1 6.625 1 6.625 -1 8 C-0.67 8.66 -0.34 9.32 0 10 C-1.32 9.67 -2.64 9.34 -4 9 C-4 8.01 -4 7.02 -4 6 C-3.01 6 -2.02 6 -1 6 C-0.67 4.02 -0.34 2.04 0 0 Z " fill="#6965AE" transform="translate(413,282)"/>
<path d="M0 0 C2.31 0 4.62 0 7 0 C7.66 1.32 8.32 2.64 9 4 C8.01 4.495 8.01 4.495 7 5 C5.31923769 4.36971413 3.65204456 3.70211894 2 3 C1.34 3 0.68 3 0 3 C0 2.01 0 1.02 0 0 Z " fill="#110C65" transform="translate(372,265)"/>
<path d="M0 0 C1.65 0 3.3 0 5 0 C4.34 1.65 3.68 3.3 3 5 C1.35 5 -0.3 5 -2 5 C-1.34 3.35 -0.68 1.7 0 0 Z " fill="#2D1C8A" transform="translate(382,227)"/>
<path d="M0 0 C0.66 0.33 1.32 0.66 2 1 C2 1.99 2 2.98 2 4 C3.65 4 5.3 4 7 4 C7.66 5.32 8.32 6.64 9 8 C5.62537285 7.45276317 3.91765 6.9451 1 5 C1 4.34 1 3.68 1 3 C0.34 2.67 -0.32 2.34 -1 2 C-0.67 1.34 -0.34 0.68 0 0 Z " fill="#665C9A" transform="translate(356,172)"/>
<path d="M0 0 C0.66 0.33 1.32 0.66 2 1 C2 1.99 2 2.98 2 4 C1.01 4.33 0.02 4.66 -1 5 C-2.21869929 7.50447516 -2.21869929 7.50447516 -3 10 C-3.33 10 -3.66 10 -4 10 C-3.51171875 3.9453125 -3.51171875 3.9453125 -3 2 C-2.01 1.34 -1.02 0.68 0 0 Z " fill="#24187E" transform="translate(372,140)"/>
<path d="M0 0 C0.99 0 1.98 0 3 0 C3 2.64 3 5.28 3 8 C2.01 8 1.02 8 0 8 C0 5.36 0 2.72 0 0 Z " fill="#261A70" transform="translate(356,132)"/>
<path d="M0 0 C3.3 0 6.6 0 10 0 C9.67 1.32 9.34 2.64 9 4 C8.34 3.67 7.68 3.34 7 3 C6.67 3.33 6.34 3.66 6 4 C4.02 3.01 2.04 2.02 0 1 C0 0.67 0 0.34 0 0 Z " fill="#261C69" transform="translate(347,114)"/>
<path d="M0 0 C1.125 3.75 1.125 3.75 0 6 C-3.3 6 -6.6 6 -10 6 C-10 5.67 -10 5.34 -10 5 C-9.36191406 4.89042969 -8.72382813 4.78085937 -8.06640625 4.66796875 C-7.24011719 4.50941406 -6.41382813 4.35085938 -5.5625 4.1875 C-4.32693359 3.96126953 -4.32693359 3.96126953 -3.06640625 3.73046875 C-2.38449219 3.48941406 -1.70257813 3.24835938 -1 3 C-0.67 2.01 -0.34 1.02 0 0 Z " fill="#403880" transform="translate(311,280)"/>
<path d="M0 0 C0.33 0 0.66 0 1 0 C1.1953125 2.05078125 1.390625 4.1015625 1.5859375 6.15234375 C1.72257812 6.76207031 1.85921875 7.37179687 2 8 C2.66 8.33 3.32 8.66 4 9 C2.68 9 1.36 9 0 9 C-0.12375 8.360625 -0.2475 7.72125 -0.375 7.0625 C-0.684375 6.0415625 -0.684375 6.0415625 -1 5 C-1.66 4.67 -2.32 4.34 -3 4 C-2.01 4 -1.02 4 0 4 C0 2.68 0 1.36 0 0 Z " fill="#5A5290" transform="translate(291,279)"/>
<path d="M0 0 C0.33 2.31 0.66 4.62 1 7 C0.01 6.67 -0.98 6.34 -2 6 C-3.1875 3.4375 -3.1875 3.4375 -4 1 C-2 0 -2 0 0 0 Z " fill="#271464" transform="translate(290,276)"/>
<path d="M0 0 C2.97 0.33 5.94 0.66 9 1 C9 1.66 9 2.32 9 3 C5.42355152 4.2380014 2.66305234 3.74926071 -1 3 C-0.67 2.01 -0.34 1.02 0 0 Z " fill="#2A2269" transform="translate(380,164)"/>
<path d="M0 0 C2 3 2 3 1.8125 5 C0.90059285 7.24469451 -0.18533754 8.42203265 -2 10 C-2.33 8.02 -2.66 6.04 -3 4 C-2.34 3.67 -1.68 3.34 -1 3 C-0.67 2.01 -0.34 1.02 0 0 Z " fill="#32266F" transform="translate(347,143)"/>
<path d="M0 0 C0 1.98 0 3.96 0 6 C-0.66 6 -1.32 6 -2 6 C-2 5.34 -2 4.68 -2 4 C-2.99 4.33 -3.98 4.66 -5 5 C-5.33 3.68 -5.66 2.36 -6 1 C-1.125 0 -1.125 0 0 0 Z " fill="#241A69" transform="translate(268,96)"/>
<path d="M0 0 C1.24546405 2.49092811 0.7767578 3.41080733 0 6 C-2.31 5.67 -4.62 5.34 -7 5 C-6.67 4.01 -6.34 3.02 -6 2 C-3.525 2.99 -3.525 2.99 -1 4 C-0.67 2.68 -0.34 1.36 0 0 Z " fill="#1E1663" transform="translate(257,280)"/>
<path d="M0 0 C1.32 0 2.64 0 4 0 C5.125 4.75 5.125 4.75 4 7 C3.34 7 2.68 7 2 7 C1.34 4.69 0.68 2.38 0 0 Z " fill="#2B1D7E" transform="translate(250,276)"/>
<path d="M0 0 C0.66 0 1.32 0 2 0 C2 1.65 2 3.3 2 5 C0.68 5.33 -0.64 5.66 -2 6 C-2 7.65 -2 9.3 -2 11 C-2.33 11 -2.66 11 -3 11 C-3 8.69 -3 6.38 -3 4 C-2.34 4 -1.68 4 -1 4 C-0.67 2.68 -0.34 1.36 0 0 Z " fill="#3B2E84" transform="translate(291,265)"/>
<path d="M0 0 C1.98 0 3.96 0 6 0 C6 1.32 6 2.64 6 4 C4.35 4 2.7 4 1 4 C0.67 2.68 0.34 1.36 0 0 Z " fill="#22196B" transform="translate(337,263)"/>
<path d="M0 0 C1.65 0.33 3.3 0.66 5 1 C5 1.66 5 2.32 5 3 C5.66 3.33 6.32 3.66 7 4 C3.37 4 -0.26 4 -4 4 C-4 3.67 -4 3.34 -4 3 C-2.35 2.67 -0.7 2.34 1 2 C0.67 1.34 0.34 0.68 0 0 Z " fill="#271C6B" transform="translate(289,163)"/>
<path d="M0 0 C-0.99 1.485 -0.99 1.485 -2 3 C-4.1640625 3.29296875 -4.1640625 3.29296875 -6.625 3.1875 C-7.44226563 3.16042969 -8.25953125 3.13335937 -9.1015625 3.10546875 C-9.72804688 3.07066406 -10.35453125 3.03585937 -11 3 C-7.11595442 0.41063628 -4.5725325 -0.12358196 0 0 Z " fill="#271A7A" transform="translate(345,288)"/>
<path d="M0 0 C2.31 0.33 4.62 0.66 7 1 C7 1.66 7 2.32 7 3 C5.02 3.33 3.04 3.66 1 4 C0.67 2.68 0.34 1.36 0 0 Z " fill="#211569" transform="translate(356,286)"/>
<path d="M0 0 C2.0625 0.4375 2.0625 0.4375 4 1 C3.34 2.65 2.68 4.3 2 6 C2.66 6.33 3.32 6.66 4 7 C2.68 7 1.36 7 0 7 C-0.38133299 5.0085944 -0.71325582 3.00720923 -1 1 C-0.67 0.67 -0.34 0.34 0 0 Z " fill="#342C71" transform="translate(266,271)"/>
<path d="M0 0 C0.99 0.33 1.98 0.66 3 1 C2.67 2.65 2.34 4.3 2 6 C0.35 6 -1.3 6 -3 6 C-2.67 4.68 -2.34 3.36 -2 2 C-1.34 2 -0.68 2 0 2 C0 1.34 0 0.68 0 0 Z " fill="#282261" transform="translate(257,265)"/>
<path d="M0 0 C0.66 0 1.32 0 2 0 C1.8125 2.375 1.8125 2.375 1 5 C-1.5625 6.3125 -1.5625 6.3125 -4 7 C-4 6.34 -4 5.68 -4 5 C-4.66 4.67 -5.32 4.34 -6 4 C-4.35 4 -2.7 4 -1 4 C-0.67 2.68 -0.34 1.36 0 0 Z " fill="#000064" transform="translate(406,256)"/>
<path d="M0 0 C1.65 0 3.3 0 5 0 C4.67 1.65 4.34 3.3 4 5 C2.35 4.67 0.7 4.34 -1 4 C-0.67 2.68 -0.34 1.36 0 0 Z " fill="#3B2E8C" transform="translate(370,136)"/>
<path d="M0 0 C0 0.66 0 1.32 0 2 C-8.57142857 3.42857143 -8.57142857 3.42857143 -12 1 C-7.95858806 0.36605303 -4.0934693 -0.12404452 0 0 Z " fill="#4C4683" transform="translate(278,132)"/>
<path d="M0 0 C0.66 0.66 1.32 1.32 2 2 C1.625 5.625 1.625 5.625 1 9 C0.01 8.67 -0.98 8.34 -2 8 C-1.125 1.125 -1.125 1.125 0 0 Z " fill="#171068" transform="translate(378,121)"/>
<path d="M0 0 C0.99 0.33 1.98 0.66 3 1 C2.34 2.98 1.68 4.96 1 7 C0.01 6.67 -0.98 6.34 -2 6 C-1.34 4.02 -0.68 2.04 0 0 Z " fill="#1F1666" transform="translate(410,119)"/>
<path d="M0 0 C0.99 0.33 1.98 0.66 3 1 C3.33 1.99 3.66 2.98 4 4 C3.01 5.485 3.01 5.485 2 7 C1.34 7 0.68 7 0 7 C0 4.69 0 2.38 0 0 Z " fill="#524C86" transform="translate(347,283)"/>
<path d="M0 0 C4.875 3.625 4.875 3.625 6 7 C1.25 5.125 1.25 5.125 -1 4 C-0.67 2.68 -0.34 1.36 0 0 Z " fill="#524C8B" transform="translate(258,280)"/>
<path d="M0 0 C1.32 0.33 2.64 0.66 4 1 C3.67 2.65 3.34 4.3 3 6 C0.69 6 -1.62 6 -4 6 C-4 5.34 -4 4.68 -4 4 C-2.68 4 -1.36 4 0 4 C0 2.68 0 1.36 0 0 Z " fill="#625B94" transform="translate(343,263)"/>
<path d="M0 0 C1.5625 1.625 1.5625 1.625 3 4 C2.6875 7.25 2.6875 7.25 2 10 C1.67 9.34 1.34 8.68 1 8 C0.34 7.67 -0.32 7.34 -1 7 C-1.04254356 5.00045254 -1.04080783 2.99958364 -1 1 C-0.67 0.67 -0.34 0.34 0 0 Z " fill="#190F60" transform="translate(293,203)"/>
<path d="M0 0 C0 0.66 0 1.32 0 2 C-3.465 3.485 -3.465 3.485 -7 5 C-6.625 3.0625 -6.625 3.0625 -6 1 C-4 0 -4 0 0 0 Z " fill="#564191" transform="translate(402,175)"/>
<path d="M0 0 C2.97 0.99 5.94 1.98 9 3 C9 3.33 9 3.66 9 4 C2.25 4.125 2.25 4.125 0 3 C0 2.01 0 1.02 0 0 Z " fill="#3E3674" transform="translate(235,99)"/>
<path d="M0 0 C0.33 0.66 0.66 1.32 1 2 C2.32 2 3.64 2 5 2 C5.33 3.32 5.66 4.64 6 6 C4.68 5.67 3.36 5.34 2 5 C2 4.34 2 3.68 2 3 C0.02 3.99 0.02 3.99 -2 5 C-1.34 3.35 -0.68 1.7 0 0 Z " fill="#51449B" transform="translate(235,91)"/>
<path d="M0 0 C1.98 0 3.96 0 6 0 C5.67 0.99 5.34 1.98 5 3 C3.0625 3.8125 3.0625 3.8125 1 4 C0.34 3.34 -0.32 2.68 -1 2 C-0.67 1.34 -0.34 0.68 0 0 Z " fill="#2A1A83" transform="translate(302,287)"/>
<path d="M0 0 C0.99 0 1.98 0 3 0 C3 1.65 3 3.3 3 5 C1.02 5 -0.96 5 -3 5 C-2.34 4.67 -1.68 4.34 -1 4 C-0.34786708 1.97536745 -0.34786708 1.97536745 0 0 Z " fill="#2C1D82" transform="translate(312,282)"/>
<path d="M0 0 C-4.75 3.875 -4.75 3.875 -7 5 C-7.33 3.35 -7.66 1.7 -8 0 C-4.94736336 -0.98120464 -3.05263664 -0.98120464 0 0 Z " fill="#6B649E" transform="translate(265,262)"/>
<path d="M0 0 C2.125 0.9375 2.125 0.9375 4 2 C-0.75 5 -0.75 5 -3 5 C-2.625 3.0625 -2.625 3.0625 -2 1 C-1.34 0.67 -0.68 0.34 0 0 Z " fill="#483E87" transform="translate(257,257)"/>
<path d="M0 0 C1.32 0 2.64 0 4 0 C4 1.65 4 3.3 4 5 C2.68 5 1.36 5 0 5 C0 3.35 0 1.7 0 0 Z " fill="#231A6B" transform="translate(408,255)"/>
<path d="M0 0 C2.97 0 5.94 0 9 0 C7.515 1.485 7.515 1.485 6 3 C2.8125 2.6875 2.8125 2.6875 0 2 C0 1.34 0 0.68 0 0 Z " fill="#55498F" transform="translate(295,178)"/>
<path d="M0 0 C0.66 0.33 1.32 0.66 2 1 C4.3329866 1.04022391 6.66706666 1.04320247 9 1 C9 1.33 9 1.66 9 2 C7.35 2 5.7 2 4 2 C3.67 2.66 3.34 3.32 3 4 C0.4375 4.625 0.4375 4.625 -2 5 C-1.34 3.35 -0.68 1.7 0 0 Z " fill="#57499A" transform="translate(315,142)"/>
<path d="M0 0 C4.875 2.75 4.875 2.75 6 5 C3.36 4.67 0.72 4.34 -2 4 C-1.34 2.68 -0.68 1.36 0 0 Z " fill="#4F487E" transform="translate(289,125)"/>
<path d="M0 0 C-0.33 1.32 -0.66 2.64 -1 4 C-3.4375 3.625 -3.4375 3.625 -6 3 C-6.33 2.34 -6.66 1.68 -7 1 C-4.53721199 -0.231394 -2.7204945 -0.07159196 0 0 Z " fill="#21156A" transform="translate(418,288)"/>
<path d="M0 0 C0.33 0.99 0.66 1.98 1 3 C2.32 2.01 3.64 1.02 5 0 C5.66 0.33 6.32 0.66 7 1 C6.67 1.99 6.34 2.98 6 4 C4.02 4.33 2.04 4.66 0 5 C0 3.35 0 1.7 0 0 Z " fill="#756FAD" transform="translate(391,263)"/>
<path d="M0 0 C0.99 0.33 1.98 0.66 3 1 C1 3 1 3 -1.8203125 3.1953125 C-2.91085937 3.17210937 -4.00140625 3.14890625 -5.125 3.125 C-6.22070312 3.10695312 -7.31640625 3.08890625 -8.4453125 3.0703125 C-9.28835938 3.04710937 -10.13140625 3.02390625 -11 3 C-11 2.67 -11 2.34 -11 2 C-10.28972656 1.93941406 -9.57945312 1.87882813 -8.84765625 1.81640625 C-7.46900391 1.69072266 -7.46900391 1.69072266 -6.0625 1.5625 C-5.14597656 1.48128906 -4.22945313 1.40007812 -3.28515625 1.31640625 C-1.03840268 1.23955024 -1.03840268 1.23955024 0 0 Z " fill="#645B93" transform="translate(385,231)"/>
<path d="M0 0 C0.66 0 1.32 0 2 0 C2 1.32 2 2.64 2 4 C1.34 4 0.68 4 0 4 C-0.33 4.99 -0.66 5.98 -1 7 C-1.99 6.34 -2.98 5.68 -4 5 C-3.34 5 -2.68 5 -2 5 C-1.34 3.35 -0.68 1.7 0 0 Z " fill="#4A4484" transform="translate(399,153)"/>
<path d="M0 0 C1.98 0.99 1.98 0.99 4 2 C3.67 3.65 3.34 5.3 3 7 C0 3.375 0 3.375 0 0 Z " fill="#4E437E" transform="translate(353,282)"/>
<path d="M0 0 C0.66 1.32 1.32 2.64 2 4 C0.68 5.32 -0.64 6.64 -2 8 C-1.125 1.125 -1.125 1.125 0 0 Z " fill="#2A1E83" transform="translate(279,273)"/>
<path d="M0 0 C1.32 0.66 2.64 1.32 4 2 C4 2.99 4 3.98 4 5 C2.35 4.67 0.7 4.34 -1 4 C-0.67 2.68 -0.34 1.36 0 0 Z " fill="#33276C" transform="translate(387,209)"/>
<path d="M0 0 C1.65 0.33 3.3 0.66 5 1 C5.33 1.99 5.66 2.98 6 4 C3.69 3.67 1.38 3.34 -1 3 C-0.67 2.01 -0.34 1.02 0 0 Z " fill="#423687" transform="translate(387,177)"/>
<path d="M0 0 C0.99 0 1.98 0 3 0 C3.66 1.65 4.32 3.3 5 5 C3.35 5 1.7 5 0 5 C0 3.35 0 1.7 0 0 Z " fill="#24186F" transform="translate(403,140)"/>
<path d="M0 0 C1.32 0.66 2.64 1.32 4 2 C3.34 2.66 2.68 3.32 2 4 C-0.625 3.625 -0.625 3.625 -3 3 C-2.01 2.01 -1.02 1.02 0 0 Z " fill="#2D1B86" transform="translate(243,98)"/>
<path d="" fill="#000040" transform="translate(0,0)"/>
<path d="" fill="#FFFFFF" transform="translate(0,0)"/>
<path d="" fill="#000000" transform="translate(0,0)"/>
<path d="" fill="#0000FF" transform="translate(0,0)"/>
</svg>
